<svg width="59" height="58" viewBox="0 0 59 58" fill="none" xmlns="http://www.w3.org/2000/svg">
<path d="M55.9939 34.795C55.6806 34.6638 55.3509 34.5862 55.009 34.5575L55.039 34.4897L45.3363 30.367C45.3344 30.3661 45.3324 30.3656 45.3305 30.3647L30.0135 23.8571V31.6213L41.8016 29.4602L41.4061 30.9587L39.8657 36.7958L36.2194 36.9247V36.9248L30.0136 37.144V47.7359L36.4469 50.4692C36.4469 50.4693 36.4471 50.4693 36.4473 50.4693L46.15 54.5917L46.1606 54.5678C46.3906 54.7522 46.6427 54.9039 46.917 55.0186C49.8923 56.2642 54.3363 52.7465 56.8429 47.1618C59.3495 41.5772 58.9694 36.0404 55.994 34.7949L55.9939 34.795ZM56.0635 46.8356C54.9359 49.3481 53.0401 50.9741 51.8292 50.4673C50.6184 49.9605 50.5511 47.5127 51.6787 45.0001C52.8064 42.4876 54.7022 40.8617 55.913 41.3685C57.1239 41.8753 57.1912 44.323 56.0636 46.8356L56.0635 46.8356ZM17.8253 0C11.5746 0 6.50751 2.55552 6.50751 5.70794C6.50751 5.80047 6.51227 5.89249 6.52081 5.984V17.7373C4.8651 19.1604 3.28104 21.3242 2.12162 23.946C-0.285868 29.3904 0.0280248 34.7945 2.79224 36.1642L2.78989 36.1695L2.95221 36.2385C2.95247 36.2385 2.95274 36.2386 2.95287 36.2388L6.79096 37.8693V52.3636H6.79057C6.79057 52.368 6.7909 52.3722 6.7909 52.3765V52.5379H6.79637C6.9793 55.5688 11.913 58 17.9663 58C24.0195 58 28.9533 55.5687 29.1361 52.5379H29.1421V6.215H29.0978C29.127 6.04802 29.1428 5.87888 29.1428 5.70801C29.1428 2.55565 24.0755 0.000127732 17.8251 0.000127732L17.8253 0ZM17.825 0.825854C20.6372 0.825854 22.9169 1.86578 22.9169 3.14865C22.9169 4.43152 20.6372 5.47145 17.825 5.47145C15.0129 5.47145 12.7331 4.43152 12.7331 3.14865C12.7331 1.86578 15.0128 0.825854 17.825 0.825854ZM11.7642 34.4856L10.2176 32.8927L15.0146 31.2505L7.34775 20.1206L14.9842 18.9444L22.3759 34.1363L19.2624 35.6479L25.997 49.1442L11.7642 34.4855V34.4856Z" fill="#B65E0C"/>
</svg>
