<svg width="94" height="94" viewBox="0 0 94 94" fill="none" xmlns="http://www.w3.org/2000/svg">
<path d="M65.8964 93.697C58.5185 93.697 51.5832 90.8264 46.3726 85.6098C41.1559 80.3931 38.2823 73.4578 38.2823 66.0829C38.2823 61.0057 39.6433 56.1406 42.1926 51.897C37.9519 54.4462 33.0839 55.8072 28.0066 55.8072C20.6318 55.8072 13.6964 52.9337 8.4828 47.717C3.26311 42.5034 0.392578 35.568 0.392578 28.1932C0.392578 20.8183 3.26614 13.883 8.4828 8.66932C13.6964 3.44963 20.6318 0.579102 28.0066 0.579102C35.3815 0.579102 42.3168 3.45266 47.5305 8.66932C52.7471 13.883 55.6207 20.8183 55.6207 28.1932C55.6207 33.2674 54.2597 38.1354 51.7105 42.376C55.9511 39.8299 60.8192 38.4658 65.8964 38.4658C73.2743 38.4658 80.2096 41.3394 85.4233 46.556C90.6399 51.7697 93.5105 58.705 93.5105 66.0799C93.5105 73.4548 90.6399 80.3931 85.4233 85.6068C80.2066 90.8204 73.2743 93.697 65.8964 93.697ZM65.8964 40.6513C59.1035 40.6513 52.7168 43.2975 47.9124 48.102C43.111 52.9064 40.4618 59.29 40.4618 66.0859C40.4618 72.8819 43.108 79.2686 47.9124 84.0699C52.7168 88.8744 59.1005 91.5206 65.8964 91.5206C72.6923 91.5206 79.079 88.8744 83.8804 84.0699C88.6848 79.2686 91.331 72.8819 91.331 66.0859C91.331 59.29 88.6848 52.9064 83.8804 48.102C79.079 43.2975 72.6893 40.6513 65.8964 40.6513ZM23.8388 53.2853C25.2028 53.5096 26.5971 53.6217 28.0066 53.6217C34.56 53.6217 40.7315 51.1604 45.4723 46.6743V28.563H47.6547V44.3433C51.4013 39.8026 53.4382 34.1555 53.4382 28.1932C53.4382 26.1895 53.2109 24.2193 52.7593 22.3157L37.0608 13.2525L38.152 11.361L51.8317 19.2572C50.5738 15.8987 48.6005 12.819 45.9876 10.2061C42.9564 7.17495 39.2917 5.00159 35.2936 3.81337L19.5921 12.8766L18.5009 10.9851L32.1715 3.09195C30.8074 2.86764 29.4131 2.75549 28.0036 2.75549C21.4502 2.75549 15.2787 5.21681 10.5379 9.70296V27.8173H8.35549V12.043C4.61198 16.5837 2.57503 22.2308 2.57503 28.1932C2.57503 30.1968 2.8054 32.167 3.25401 34.0706L18.9555 43.1338L17.8643 45.0253L4.18155 37.126C5.43949 40.4846 7.41279 43.5643 10.0257 46.1772C13.0569 49.2083 16.7215 51.3817 20.7197 52.5699L36.4212 43.5067L37.5124 45.3981L23.8388 53.2853ZM66.2298 85.0278H64.0474V80.0567H56.0451V77.8742H68.1698C70.91 77.8742 73.1409 75.6463 73.1409 72.9031C73.1409 70.1599 70.913 67.9319 68.1698 67.9319H62.1074C58.1608 67.9319 54.9538 64.7219 54.9538 60.7784C54.9538 56.8348 58.1639 53.6248 62.1074 53.6248H64.0474V48.6536H66.2329V53.6248H74.2321V55.8102H62.1074C59.3672 55.8102 57.1363 58.0382 57.1363 60.7814C57.1363 63.5246 59.3642 65.7525 62.1074 65.7525H68.1698C72.1164 65.7525 75.3234 68.9625 75.3234 72.9061C75.3234 76.8497 72.1133 80.0597 68.1698 80.0597H66.2298V85.0278ZM29.0979 35.7711H26.9154V29.2844H20.4287V27.1019H26.9154V20.6152H29.0979V27.1019H35.5846V29.2844H29.0979V35.7711Z" fill="#DB5669"/>
</svg>
