<svg width="102" height="102" viewBox="0 0 102 102" fill="none" xmlns="http://www.w3.org/2000/svg">
<path d="M82.8148 37.1281L77.251 40.7812C76.6384 41.1698 76.1798 41.7592 75.9538 42.4486C75.7279 43.138 75.7485 43.8845 76.0123 44.5604L78.4268 50.733C78.5992 51.2192 78.6496 51.7403 78.5735 52.2505C78.4974 52.7607 78.2971 53.2444 77.9902 53.6591C77.6833 54.0738 77.2793 54.4068 76.8136 54.6287C76.3479 54.8507 75.8349 54.9548 75.3195 54.932L68.559 54.5751C67.8375 54.5361 67.1245 54.7463 66.5396 55.1707C65.9548 55.595 65.5336 56.2075 65.3468 56.9055L63.6042 63.3721C63.4685 63.8785 63.2086 64.343 62.848 64.7235C62.4874 65.104 62.0376 65.3885 61.5392 65.5512C61.0408 65.7138 60.5097 65.7495 59.9941 65.6549C59.4784 65.5604 58.9945 65.3386 58.5863 65.0097L53.2955 60.8107C52.7361 60.3608 52.0398 60.1156 51.322 60.1156C50.6041 60.1156 49.9078 60.3608 49.3484 60.8107L44.0576 65.0097C43.6494 65.3386 43.1655 65.5604 42.6499 65.6549C42.1342 65.7495 41.6031 65.7138 41.1048 65.5512C40.6064 65.3885 40.1565 65.104 39.7959 64.7235C39.4353 64.343 39.1754 63.8785 39.0398 63.3721L37.2972 56.9055C37.1104 56.2075 36.6892 55.595 36.1043 55.1707C35.5195 54.7463 34.8065 54.5361 34.0849 54.5751L27.3245 54.932C26.8091 54.9548 26.296 54.8507 25.8303 54.6287C25.3646 54.4068 24.9606 54.0738 24.6537 53.6591C24.3469 53.2444 24.1466 52.7607 24.0705 52.2505C23.9943 51.7403 24.0447 51.2192 24.2172 50.733L26.6316 44.5604C26.8954 43.8845 26.9161 43.138 26.6901 42.4486C26.4641 41.7592 26.0056 41.1698 25.3929 40.7812L19.8292 37.1281C19.3872 36.8426 19.0238 36.4509 18.7722 35.9888C18.5205 35.5267 18.3887 35.0089 18.3887 34.4827C18.3887 33.9565 18.5205 33.4387 18.7722 32.9766C19.0238 32.5145 19.3872 32.1228 19.8292 31.8373L25.3929 28.1841C26.0056 27.7956 26.4641 27.2061 26.6901 26.5167C26.9161 25.8273 26.8954 25.0808 26.6316 24.405L24.2172 18.2744C24.0447 17.7882 23.9943 17.2671 24.0705 16.7569C24.1466 16.2466 24.3469 15.7629 24.6537 15.3482C24.9606 14.9336 25.3646 14.6006 25.8303 14.3787C26.296 14.1567 26.8091 14.0526 27.3245 14.0754L34.0849 14.4323C34.8178 14.467 35.5397 14.2448 36.1262 13.804C36.7127 13.3632 37.1268 12.7314 37.2972 12.0178L39.0398 5.55131C39.1754 5.04492 39.4353 4.58039 39.7959 4.19987C40.1565 3.81934 40.6064 3.53485 41.1048 3.3722C41.6031 3.20955 42.1342 3.17389 42.6499 3.26845C43.1655 3.363 43.6494 3.58479 44.0576 3.91369L49.3484 8.11273C49.9078 8.56257 50.6041 8.80781 51.322 8.80781C52.0398 8.80781 52.7361 8.56257 53.2955 8.11273L58.5863 3.91369C58.9945 3.58479 59.4784 3.363 59.9941 3.26845C60.5097 3.17389 61.0408 3.20955 61.5392 3.3722C62.0376 3.53485 62.4874 3.81934 62.848 4.19987C63.2086 4.58039 63.4685 5.04492 63.6042 5.55131L65.3468 12.0178C65.5336 12.7158 65.9548 13.3284 66.5396 13.7527C67.1245 14.177 67.8375 14.3873 68.559 14.3483L75.3195 13.9914C75.8349 13.9686 76.3479 14.0727 76.8136 14.2947C77.2793 14.5166 77.6833 14.8496 77.9902 15.2643C78.2971 15.6789 78.4974 16.1627 78.5735 16.6729C78.6496 17.1831 78.5992 17.7042 78.4268 18.1904L76.0123 24.363C75.7485 25.0388 75.7279 25.7853 75.9538 26.4747C76.1798 27.1641 76.6384 27.7536 77.251 28.1421L82.8148 31.8373C83.2568 32.1228 83.6202 32.5145 83.8718 32.9766C84.1235 33.4387 84.2553 33.9565 84.2553 34.4827C84.2553 35.0089 84.1235 35.5267 83.8718 35.9888C83.6202 36.4509 83.2568 36.8426 82.8148 37.1281Z" fill="#FFDE76"/>
<path d="M67.9712 54.6593C65.3468 54.9742 65.3468 56.9268 63.6042 63.4143C63.4685 63.9207 63.2086 64.3852 62.848 64.7658C62.4874 65.1463 62.0376 65.4308 61.5392 65.5934C61.0408 65.7561 60.5097 65.7917 59.9941 65.6972C59.4784 65.6026 58.9945 65.3808 58.5863 65.0519L53.2955 60.8529C52.7361 60.403 52.0398 60.1578 51.322 60.1578C50.6041 60.1578 49.9078 60.403 49.3484 60.8529L44.0576 65.0519C43.6494 65.3808 43.1655 65.6026 42.6499 65.6972C42.1342 65.7917 41.6031 65.7561 41.1048 65.5934C40.6064 65.4308 40.1565 65.1463 39.7959 64.7658C39.4353 64.3852 39.1754 63.9207 39.0398 63.4143L37.2972 56.9478C37.1104 56.2498 36.6892 55.6372 36.1043 55.2129C35.5195 54.7886 34.8065 54.5783 34.0849 54.6173L27.3245 54.9742C26.8091 54.997 26.296 54.8929 25.8303 54.671C25.3646 54.449 24.9606 54.1161 24.6537 53.7014C24.3469 53.2867 24.1466 52.803 24.0705 52.2927C23.9943 51.7825 24.0447 51.2614 24.2172 50.7752L26.6316 44.6026C26.8954 43.9268 26.9161 43.1803 26.6901 42.4909C26.4641 41.8015 26.0056 41.2121 25.3929 40.8235L19.8292 37.1283C19.3872 36.8428 19.0238 36.4511 18.7722 35.989C18.5205 35.5269 18.3887 35.0091 18.3887 34.4829C18.3887 33.9568 18.5205 33.439 18.7722 32.9769C19.0238 32.5147 19.3872 32.123 19.8292 31.8375L25.3929 28.1844C26.0056 27.7958 26.4641 27.2064 26.6901 26.517C26.9161 25.8276 26.8954 25.0811 26.6316 24.4052L24.2172 18.2747C24.0447 17.7885 23.9943 17.2673 24.0705 16.7571C24.1466 16.2469 24.3469 15.7632 24.6537 15.3485C24.9606 14.9338 25.3646 14.6009 25.8303 14.3789C26.296 14.157 26.8091 14.0528 27.3245 14.0756L34.0849 14.4325C34.7337 14.4716 35.3784 14.3062 35.9282 13.9598C36.4781 13.6133 36.9055 13.1031 37.1502 12.501C46.4975 14.6492 54.7579 20.0931 60.4183 27.8357C66.0787 35.5782 68.76 45.1009 67.9712 54.6593Z" fill="#FFCC66"/>
<path d="M51.3214 53.3787C61.7572 53.3787 70.2171 44.9189 70.2171 34.4831C70.2171 24.0473 61.7572 15.5874 51.3214 15.5874C40.8857 15.5874 32.4258 24.0473 32.4258 34.4831C32.4258 44.9189 40.8857 53.3787 51.3214 53.3787Z" fill="#DAD7E5"/>
<path d="M51.3216 15.5874C48.3383 15.5902 45.398 16.2994 42.7414 17.6569C40.0848 19.0144 37.7873 20.9816 36.0371 23.3976C39.6769 20.7838 44.1273 19.5486 48.5936 19.9126C53.0599 20.2765 57.2515 22.2159 60.4201 25.3846C63.5888 28.5532 65.5282 32.7448 65.8921 37.2111C66.2561 41.6774 65.0209 46.1277 62.4071 49.7676C65.6329 47.4228 68.0341 44.1176 69.2671 40.325C70.5 36.5325 70.5015 32.4471 69.2712 28.6537C68.0409 24.8602 65.6419 21.5533 62.4178 19.2063C59.1936 16.8593 55.3095 15.5926 51.3216 15.5874Z" fill="#EDEBF2"/>
<path d="M70.2171 54.7014V99.5681L51.3214 84.8715L32.4258 99.5681V54.7014H34.0844C34.8059 54.6624 35.5189 54.8726 36.1038 55.297C36.6887 55.7213 37.1098 56.3338 37.2967 57.0318L39.0393 63.4984C39.1749 64.0048 39.4348 64.4693 39.7954 64.8498C40.156 65.2303 40.6059 65.5148 41.1042 65.6775C41.6026 65.8401 42.1337 65.8758 42.6494 65.7812C43.165 65.6867 43.6489 65.4649 44.0571 65.136L49.3479 60.9369C53.064 57.9556 56.8852 65.4929 60.2234 65.8708C60.971 65.9608 61.7259 65.7762 62.3476 65.3514C62.9694 64.9266 63.4157 64.2905 63.6036 63.5613C65.1993 57.5987 64.8214 58.9844 65.3462 57.0948C65.5331 56.3968 65.9542 55.7843 66.5391 55.3599C67.124 54.9356 67.837 54.7253 68.5585 54.7644L70.2171 54.7014Z" fill="#DB5669"/>
<path d="M60.2234 65.7239L59.8245 67.1725C59.6921 67.6786 59.4348 68.1434 59.0763 68.5243C58.7178 68.9053 58.2695 69.1903 57.7724 69.3532C57.2753 69.5161 56.7453 69.5518 56.2308 69.4569C55.7164 69.362 55.2339 69.1397 54.8277 68.8101L49.5369 64.6111C48.9775 64.1613 48.2812 63.916 47.5633 63.916C46.8455 63.916 46.1492 64.1613 45.5898 64.6111L40.278 68.8101C39.8717 69.1397 39.3892 69.362 38.8748 69.4569C38.3604 69.5518 37.8303 69.5161 37.3332 69.3532C36.8361 69.1903 36.3878 68.9053 36.0293 68.5243C35.6708 68.1434 35.4136 67.6786 35.2811 67.1725C33.4126 60.2231 33.5175 59.9082 32.4258 59.0264V54.7014H34.0844C34.8059 54.6624 35.5189 54.8726 36.1038 55.297C36.6887 55.7213 37.1098 56.3338 37.2967 57.0318L39.0393 63.4984C39.1749 64.0048 39.4348 64.4693 39.7954 64.8498C40.156 65.2303 40.6059 65.5148 41.1042 65.6775C41.6026 65.8401 42.1337 65.8758 42.6494 65.7812C43.165 65.6867 43.6489 65.4649 44.0571 65.136L49.3479 60.9369C53.0641 57.8087 56.8852 65.3459 60.2234 65.7239Z" fill="#C4455E"/>
<path d="M70.219 54.7014V58.6695L64.9492 58.3965L65.3481 56.9479C65.5349 56.2498 65.9561 55.6373 66.541 55.213C67.1259 54.7887 67.8389 54.5784 68.5604 54.6174L70.219 54.7014Z" fill="#C4455E"/>
<path d="M48.5304 44.2875C47.3547 44.2875 47.4177 44.0356 41.917 38.5348C41.573 38.1332 41.3933 37.6165 41.4137 37.0881C41.4341 36.5597 41.6531 36.0585 42.027 35.6846C42.401 35.3107 42.9022 35.0916 43.4306 35.0712C43.959 35.0508 44.4756 35.2305 44.8773 35.5745L48.3415 39.0387L58.0832 26.8825C58.4443 26.5 58.9358 26.2669 59.4604 26.2295C59.9851 26.192 60.5047 26.3528 60.9164 26.6801C61.3282 27.0074 61.6021 27.4773 61.684 27.9969C61.7658 28.5165 61.6497 29.0478 61.3585 29.4859C49.3283 44.5394 49.9371 44.2875 48.5304 44.2875Z" fill="#F8834B"/>
</svg>
