<svg width="91" height="67" viewBox="0 0 91 67" fill="none" xmlns="http://www.w3.org/2000/svg">
<path d="M58.0844 25.0907H80.1514L66.5182 8.71449H58.0844V25.0907ZM68.3196 59.8903C69.9163 59.8903 71.3492 59.358 72.5774 58.1298C73.8057 56.9016 74.4607 55.4687 74.4607 53.7492C74.4607 52.1525 73.8057 50.7196 72.5774 49.4914C71.3492 48.2631 69.9163 47.6081 68.3196 47.6081C66.6001 47.6081 65.1672 48.2631 63.939 49.4914C62.7107 50.7196 62.1785 52.1525 62.1785 53.7492C62.1785 55.4687 62.7107 56.9016 63.939 58.1298C65.1672 59.358 66.6001 59.8903 68.3196 59.8903ZM21.2379 59.8903C23.0393 59.8903 24.5131 59.358 25.6595 58.1298C26.8058 56.9016 27.379 55.4687 27.379 53.7492C27.379 52.1525 26.8058 50.7196 25.6595 49.4914C24.5131 48.2631 23.0393 47.6081 21.2379 47.6081C19.4365 47.6081 17.9626 48.2631 16.8163 49.4914C15.67 50.7196 15.0968 52.1525 15.0968 53.7492C15.0968 55.4687 15.67 56.9016 16.8163 58.1298C17.9626 59.358 19.4365 59.8903 21.2379 59.8903ZM70.3666 0.526367L90.837 25.0907V53.7492H80.6018C80.6018 57.1472 79.3326 60.0131 76.8762 62.4695C74.4607 64.885 71.5949 66.0314 68.3196 66.0314C64.9215 66.0314 62.0557 64.885 59.6402 62.4695C57.1838 60.0131 56.0374 57.1472 56.0374 53.7492H33.5201C33.5201 57.1472 32.2919 60.0131 29.8764 62.4695C27.379 64.885 24.5541 66.0314 21.2379 66.0314C17.9217 66.0314 15.0968 64.885 12.5994 62.4695C10.1839 60.0131 8.9557 57.1472 8.9557 53.7492H0.767578V37.3729H34.2979L8.9557 17.353V29.1848H0.767578V4.62043H4.86164L49.8963 29.4304V0.526367H70.3666Z" fill="#DB5669"/>
</svg>
