<svg width="82" height="82" viewBox="0 0 82 82" fill="none" xmlns="http://www.w3.org/2000/svg">
<path d="M7.02705 64.2824C7.02705 51.1814 17.4407 40.7678 30.5417 40.7678C38.9397 40.7678 46.666 45.1348 51.033 52.5251L56.7437 49.1659C53.3844 43.4552 48.3456 39.0882 42.6349 36.7367C47.6737 33.0416 50.6971 26.995 50.6971 20.6124C50.6971 9.52695 41.6271 0.457031 30.5417 0.457031C19.4562 0.457031 10.3863 9.52695 10.3863 20.6124C10.3863 26.995 13.4096 33.0416 18.4484 36.7367C7.6989 41.4396 0.308594 51.8533 0.308594 64.2824V81.0786H40.6194V74.3601H7.02705V64.2824ZM17.1047 20.6124C17.1047 13.2221 23.1514 7.17549 30.5417 7.17549C37.932 7.17549 43.9786 13.2221 43.9786 20.6124C43.9786 28.0027 37.932 34.0493 30.5417 34.0493C23.1514 34.0493 17.1047 28.0027 17.1047 20.6124Z" fill="#DB5669"/>
<path d="M81.2658 53.533L55.7356 79.0632L39.9473 63.2748L44.6502 58.5718L55.7356 69.6573L76.5629 48.8301L81.2658 53.533Z" fill="#DB5669"/>
</svg>
