<svg width="77" height="46" viewBox="0 0 77 46" fill="none" xmlns="http://www.w3.org/2000/svg">
<path d="M55.7197 18.5777L54.8852 17.1908L50.9277 10.6144L49.1037 7.58318H49.1063L48.7391 6.9737L46.0019 2.43062C45.8341 2.16102 45.5415 2 45.2317 2H35.6842V3.74991H43.5958H44.7258L45.3089 4.71778L47.6184 8.55105L49.4453 11.5832H45.9053H27.4172H26.4326L25.8321 10.8028C24.9403 9.64363 23.843 8.67454 22.277 7.97639C20.688 7.26794 18.51 6.79159 15.4006 6.79159H8.72468C8.1558 6.79159 7.76758 7.25232 7.77716 7.68182L7.77747 7.69554L7.77742 7.69554C7.78434 8.14348 8.1643 8.54149 8.66454 8.54149H15.4006C19.0979 8.54149 21.4014 10.2534 22.8215 12.4136L23.4854 13.4235L22.9001 14.4808L21.5409 16.9365L20.7612 18.3452L19.2185 17.8843C17.8692 17.4811 16.4149 17.2914 14.8942 17.3438L55.7197 18.5777ZM55.7197 18.5777L57.2501 18.0506M55.7197 18.5777L57.2501 18.0506M51.6645 7.58318H52.6414H62.553C63.0561 7.58318 63.4399 7.18906 63.4399 6.70822V2.87495C63.4399 2.39412 63.0561 2 62.553 2H57.104C56.8482 2 56.6069 2.11046 56.4473 2.28674L51.6645 7.58318ZM51.6645 7.58318L51.9365 7.28197L56.4467 2.28733L51.6645 7.58318ZM57.2501 18.0506C58.635 17.5736 60.118 17.3227 61.6847 17.333C68.9714 17.3852 74.9257 23.3138 74.9995 30.5532C75.0611 38.0042 68.9774 44.0724 61.4779 43.9993L61.4756 43.9993C54.1906 43.9368 48.2582 37.9995 48.206 30.7595L48.206 30.7586C48.1747 26.6719 49.9991 23.0068 52.8947 20.5306L54.1832 19.4288L53.3073 17.9773L51.8037 15.4857L50.6204 13.5248L48.8367 14.9614C43.6712 19.122 41.0534 25.3226 41.3331 31.5806C41.355 32.0774 40.9595 32.4994 40.4443 32.4994H30.3162H28.7699M57.2501 18.0506L28.7699 32.4994M28.7699 32.4994L28.3806 33.9959M28.7699 32.4994L28.3806 33.9959M28.3806 33.9959C26.8848 39.7461 21.6395 43.9992 15.4006 43.9992C7.88874 43.9992 1.83694 37.8575 2.00337 30.3528C2.17136 23.3414 7.85374 17.5941 14.8938 17.3438L28.3806 33.9959ZM20.0179 19.7035L18.6546 22.1702L13.663 31.2018L20.0179 19.7035ZM20.0179 19.7035L17.2394 19.2311M20.0179 19.7035L17.2394 19.2311M17.2394 19.2311C16.6182 19.1255 15.9991 19.083 15.4006 19.083C8.9992 19.083 3.77766 24.2711 3.77766 30.6662C3.77766 37.0613 8.9992 42.2493 15.4006 42.2493C20.1561 42.2493 24.248 39.3821 26.0472 35.3073L27.287 32.4994M17.2394 19.2311L27.287 32.4994M27.287 32.4994H24.2176M27.287 32.4994H24.2176M24.2176 32.4994H14.4383C13.7606 32.4994 13.3465 31.7759 13.6627 31.2024L24.2176 32.4994ZM73.1989 31.2977L73.1987 31.3019C72.8784 37.1882 68.1149 41.9293 62.2255 42.2346C55.5366 42.5945 49.9678 37.2753 49.9678 30.6662C49.9678 27.5656 51.1925 24.7501 53.1848 22.6792L54.9938 20.7987L56.3396 23.0342L62.2454 32.8446L63.7674 31.9374L57.9656 22.3197L56.5119 19.9098L59.2659 19.3296C60.0402 19.1665 60.8163 19.0951 61.5885 19.095M73.1989 31.2977L71.2016 31.1932C71.4849 25.7754 67.2411 21.2569 61.9008 21.0992L61.5907 20.5852V19.095C61.59 19.095 61.5893 19.095 61.5885 19.095M73.1989 31.2977C73.5479 24.6225 68.2121 19.0817 61.5885 19.095M73.1989 31.2977L61.5896 20.5833L61.5863 19.095C61.5871 19.095 61.5878 19.095 61.5885 19.095" stroke="#B65E0C" stroke-width="4"/>
</svg>
