<svg width="59" height="58" viewBox="0 0 59 58" fill="none" xmlns="http://www.w3.org/2000/svg">
<path fill-rule="evenodd" clip-rule="evenodd" d="M39.166 5.84094V15.9104C39.166 16.4668 39.7073 16.9174 40.3743 16.9174C41.0413 16.9174 41.5827 16.4668 41.5827 15.9104V5.84094C41.5827 5.28462 41.0413 4.83398 40.3743 4.83398C39.7073 4.83398 39.166 5.28462 39.166 5.84094Z" fill="#B65E0C"/>
<path fill-rule="evenodd" clip-rule="evenodd" d="M17.416 5.84094V15.9104C17.416 16.4668 17.9573 16.9174 18.6243 16.9174C19.2913 16.9174 19.8327 16.4668 19.8327 15.9104V5.84094C19.8327 5.28462 19.2913 4.83398 18.6243 4.83398C17.9573 4.83398 17.416 5.28462 17.416 5.84094Z" fill="#B65E0C"/>
<path fill-rule="evenodd" clip-rule="evenodd" d="M7.75 15.6359V49.6143C7.75 52.9106 10.4156 55.5834 13.7022 55.5834H45.2978C48.5844 55.5834 51.25 52.9106 51.25 49.6143V15.6359C51.25 12.3396 48.5844 9.66675 45.2978 9.66675C37.3663 9.66675 21.6337 9.66675 13.7022 9.66675C10.4156 9.66675 7.75 12.3396 7.75 15.6359ZM19.8333 41.0834C21.1673 41.0834 22.25 42.1661 22.25 43.5001C22.25 44.8341 21.1673 45.9167 19.8333 45.9167C18.4993 45.9167 17.4167 44.8341 17.4167 43.5001C17.4167 42.1661 18.4993 41.0834 19.8333 41.0834ZM29.5 41.0834C30.834 41.0834 31.9167 42.1661 31.9167 43.5001C31.9167 44.8341 30.834 45.9167 29.5 45.9167C28.166 45.9167 27.0833 44.8341 27.0833 43.5001C27.0833 42.1661 28.166 41.0834 29.5 41.0834ZM39.1667 41.0834C40.5007 41.0834 41.5833 42.1661 41.5833 43.5001C41.5833 44.8341 40.5007 45.9167 39.1667 45.9167C37.8327 45.9167 36.75 44.8341 36.75 43.5001C36.75 42.1661 37.8327 41.0834 39.1667 41.0834ZM19.8333 31.4167C21.1673 31.4167 22.25 32.4994 22.25 33.8334C22.25 35.1674 21.1673 36.2501 19.8333 36.2501C18.4993 36.2501 17.4167 35.1674 17.4167 33.8334C17.4167 32.4994 18.4993 31.4167 19.8333 31.4167ZM29.5 31.4167C30.834 31.4167 31.9167 32.4994 31.9167 33.8334C31.9167 35.1674 30.834 36.2501 29.5 36.2501C28.166 36.2501 27.0833 35.1674 27.0833 33.8334C27.0833 32.4994 28.166 31.4167 29.5 31.4167ZM39.1667 31.4167C40.5007 31.4167 41.5833 32.4994 41.5833 33.8334C41.5833 35.1674 40.5007 36.2501 39.1667 36.2501C37.8327 36.2501 36.75 35.1674 36.75 33.8334C36.75 32.4994 37.8327 31.4167 39.1667 31.4167ZM48.9614 24.1667H10.0386V15.6359C10.0386 13.6059 11.6795 11.9626 13.7022 11.9626H45.2978C47.3205 11.9626 48.9614 13.6059 48.9614 15.6359V24.1667Z" fill="#B65E0C"/>
</svg>
