<svg width="228" height="227" viewBox="0 0 228 227" fill="none" xmlns="http://www.w3.org/2000/svg">
<path d="M113.844 104.355C114.842 101.947 113.698 99.1861 111.29 98.1887C108.882 97.1913 106.122 98.3348 105.124 100.743C104.127 103.151 105.27 105.911 107.678 106.909C110.086 107.906 112.847 106.763 113.844 104.355Z" fill="#B65E0C"/>
<path d="M82.8189 107.268C85.4252 107.268 87.5381 105.155 87.5381 102.549C87.5381 99.9422 85.4252 97.8293 82.8189 97.8293C80.2125 97.8293 78.0996 99.9422 78.0996 102.549C78.0996 105.155 80.2125 107.268 82.8189 107.268Z" fill="#B65E0C"/>
<path d="M136.151 107.268C138.757 107.268 140.87 105.155 140.87 102.549C140.87 99.9422 138.757 97.8293 136.151 97.8293C133.545 97.8293 131.432 99.9422 131.432 102.549C131.432 105.155 133.545 107.268 136.151 107.268Z" fill="#B65E0C"/>
<path d="M113.844 126.643C114.842 124.235 113.698 121.474 111.29 120.477C108.882 119.479 106.122 120.623 105.124 123.031C104.127 125.439 105.27 128.199 107.678 129.197C110.086 130.194 112.847 129.051 113.844 126.643Z" fill="#B65E0C"/>
<path d="M82.8189 129.556C85.4252 129.556 87.5381 127.443 87.5381 124.836C87.5381 122.23 85.4252 120.117 82.8189 120.117C80.2125 120.117 78.0996 122.23 78.0996 124.836C78.0996 127.443 80.2125 129.556 82.8189 129.556Z" fill="#B65E0C"/>
<path d="M160.796 113.648V73.9531C160.794 71.9807 160.009 70.0897 158.615 68.695C157.22 67.3003 155.329 66.5158 153.357 66.5136H138.691V58.5671H134.962V66.5136H83.8634V58.5671H80.1346V66.5136H65.4688C63.4964 66.5158 61.6054 67.3003 60.2107 68.695C58.816 70.0897 58.0315 71.9807 58.0293 73.9531V83.0984C58.0291 83.3449 58.0779 83.589 58.173 83.8164V140.367C58.1752 142.34 58.9597 144.231 60.3544 145.625C61.7491 147.02 63.6401 147.804 65.6125 147.807H122.409C123.632 152.625 126.074 157.047 129.502 160.648C132.93 164.248 137.227 166.905 141.979 168.363C146.732 169.82 151.78 170.029 156.637 168.97C161.493 167.91 165.995 165.618 169.709 162.313C173.423 159.009 176.223 154.803 177.839 150.102C179.456 145.402 179.835 140.364 178.939 135.474C178.044 130.584 175.904 126.008 172.726 122.185C169.548 118.362 165.44 115.422 160.796 113.648ZM65.6125 144.078C64.6287 144.077 63.6856 143.685 62.99 142.99C62.2943 142.294 61.903 141.351 61.9019 140.367V84.9629H157.067V112.502C152.54 111.442 147.824 111.488 143.319 112.636C138.813 113.784 134.651 116.001 131.183 119.099C127.716 122.196 125.046 126.083 123.399 130.432C121.752 134.78 121.177 139.46 121.722 144.078H65.6125ZM166.561 147.486C166.561 147.6 166.516 147.71 166.435 147.79C166.355 147.871 166.245 147.916 166.131 147.916H157.697V156.35C157.697 156.465 157.651 156.574 157.571 156.655C157.49 156.735 157.381 156.781 157.267 156.781H143.668C143.554 156.781 143.445 156.735 143.364 156.655C143.283 156.574 143.238 156.465 143.238 156.35V147.916H134.804C134.699 147.916 134.598 147.877 134.52 147.807C134.498 147.787 134.478 147.765 134.46 147.742L134.459 147.741C134.443 147.719 134.429 147.695 134.417 147.67L134.413 147.663C134.403 147.64 134.395 147.617 134.389 147.592C134.387 147.587 134.385 147.582 134.384 147.577C134.377 147.547 134.374 147.517 134.374 147.486V133.888C134.374 133.774 134.419 133.664 134.5 133.584C134.581 133.503 134.69 133.458 134.804 133.458H143.238V125.024C143.238 124.91 143.283 124.8 143.364 124.72C143.445 124.639 143.554 124.594 143.668 124.594H157.267C157.381 124.594 157.49 124.639 157.571 124.72C157.651 124.8 157.697 124.91 157.697 125.024V133.458H166.131C166.245 133.458 166.355 133.503 166.435 133.584C166.516 133.664 166.561 133.774 166.561 133.888V147.486Z" fill="#B65E0C"/>
<circle cx="113.978" cy="113.575" r="110.015" stroke="#C59A6C" stroke-width="6.58209"/>
</svg>
