<svg width="228" height="227" viewBox="0 0 228 227" fill="none" xmlns="http://www.w3.org/2000/svg">
<path fill-rule="evenodd" clip-rule="evenodd" d="M107.94 107.068L107.79 116.151H124.189C127.658 116.151 130.498 118.991 130.498 122.46V128.77H130.432V153.453C130.432 156.922 127.593 159.762 124.123 159.762H117.813V131.055C117.813 128.45 118.302 128.77 115.792 128.77H99.5435V128.732H91.4475C86.2289 128.732 81.9505 124.463 81.9505 119.235V88.1584C81.9505 82.8457 86.2947 78.5015 91.6074 78.5015H96.3841C103.953 78.5015 104.847 82.4695 106.774 86.259V85.5161L114.701 89.0892C120.54 91.7221 119.045 92.2393 123.004 87.3309L128.157 80.9463C130.686 76.9124 140.663 81.1249 136.384 87.8951L128.909 98.1067C125.797 102.357 121.659 102.959 116.648 100.871L107.931 97.8058V107.068H107.94ZM181.603 104.557C161.03 104.557 141.377 104.557 120.804 104.557C120.493 104.557 120.239 104.811 120.239 105.121V113.161C120.239 113.462 120.503 113.725 120.804 113.725H146.624V163.016C146.624 163.42 146.963 163.758 147.367 163.758H147.649H147.668H155.566H155.585H155.867C156.272 163.758 156.61 163.42 156.61 163.016V113.716C158.858 113.716 176.949 114.205 181.246 113.509C181.829 113.415 182.158 113.293 182.158 113.151V105.112C182.168 104.811 181.914 104.557 181.603 104.557ZM70.1686 98.1537H74.7666C75.7069 98.1537 76.3275 98.9342 76.478 99.8651C78.2175 110.829 79.1578 121.793 79.1108 132.757H110.601C111.843 132.757 112.858 133.772 112.858 135.013V139.574H111.053V162.912C111.053 163.288 110.742 163.599 110.366 163.599H104.33C103.953 163.599 103.643 163.288 103.643 162.912V152.757H77.879C77.5029 155.85 77.0421 158.953 76.4874 162.047C76.3181 162.969 75.7163 163.758 74.776 163.758H70.1686C69.2283 163.758 68.2033 162.95 68.4572 162.047C74.5221 140.928 73.2621 120.279 68.4572 99.8557C68.241 98.953 69.2283 98.1537 70.1686 98.1537ZM103.643 149.626V139.583H79.0168C78.8757 143.852 78.5842 145.357 78.1235 149.626H103.643ZM96.0926 48.2239C103.389 48.2239 109.294 54.1384 109.294 61.4257C109.294 68.713 103.38 74.6275 96.0926 74.6275C88.7959 74.6275 82.8908 68.713 82.8908 61.4257C82.8908 54.1384 88.7959 48.2239 96.0926 48.2239Z" fill="#B65E0C"/>
<circle cx="114.023" cy="113.575" r="110.015" stroke="#C59A6C" stroke-width="6.58209"/>
</svg>
