<svg width="106" height="104" viewBox="0 0 106 104" fill="none" xmlns="http://www.w3.org/2000/svg">
<path d="M53 0C23.7218 0 0 23.2742 0 52C0 80.7258 23.7218 104 53 104C82.2782 104 106 80.7258 106 52C106 23.2742 82.2782 0 53 0ZM53 20.129C63.3863 20.129 71.8064 28.3903 71.8064 38.5806C71.8064 48.771 63.3863 57.0323 53 57.0323C42.6137 57.0323 34.1935 48.771 34.1935 38.5806C34.1935 28.3903 42.6137 20.129 53 20.129ZM53 92.2581C40.4552 92.2581 29.2141 86.6806 21.6915 77.9581C25.7093 70.5355 33.5738 65.4193 42.7419 65.4193C43.2548 65.4193 43.7677 65.5032 44.2593 65.65C47.0375 66.5306 49.944 67.0968 53 67.0968C56.056 67.0968 58.9839 66.5306 61.7407 65.65C62.2323 65.5032 62.7452 65.4193 63.2581 65.4193C72.4262 65.4193 80.2907 70.5355 84.3085 77.9581C76.7859 86.6806 65.5448 92.2581 53 92.2581Z" fill="white"/>
</svg>
