<svg width="975" height="299" viewBox="0 0 975 299" fill="none" xmlns="http://www.w3.org/2000/svg">
<path d="M262.533 18.7639C262.198 17.5997 261.728 16.571 261.121 15.6779C260.515 14.7688 259.774 14.0033 258.897 13.3813C258.035 12.7434 257.047 12.2569 255.93 11.922C254.83 11.5871 253.61 11.4196 252.27 11.4196C249.766 11.4196 247.565 12.0416 245.667 13.2856C243.785 14.5296 242.318 16.3397 241.266 18.7161C240.213 21.0765 239.687 23.9631 239.687 27.3761C239.687 30.7891 240.205 33.6917 241.242 36.084C242.278 38.4763 243.746 40.3024 245.643 41.5623C247.541 42.8063 249.782 43.4283 252.366 43.4283C254.71 43.4283 256.712 43.0136 258.37 42.1843C260.045 41.3391 261.321 40.1509 262.198 38.6198C263.091 37.0888 263.538 35.2786 263.538 33.1894L265.643 33.5004H253.012V25.7015H273.513V31.8736C273.513 36.1797 272.604 39.8798 270.786 42.9738C268.968 46.0518 266.464 48.4282 263.275 50.1028C260.085 51.7614 256.433 52.5907 252.318 52.5907C247.725 52.5907 243.69 51.578 240.213 49.5525C236.736 47.5111 234.025 44.6165 232.079 40.8686C230.149 37.1047 229.185 32.6391 229.185 27.4718C229.185 23.5006 229.759 19.9601 230.907 16.8501C232.071 13.7242 233.698 11.0767 235.787 8.90774C237.876 6.73874 240.309 5.08806 243.084 3.95572C245.859 2.82337 248.865 2.2572 252.103 2.2572C254.878 2.2572 257.461 2.66389 259.854 3.47726C262.246 4.27469 264.367 5.40704 266.217 6.8743C268.083 8.34156 269.606 10.0879 270.786 12.1134C271.966 14.1229 272.724 16.3397 273.059 18.7639H262.533ZM299.196 52.6386C295.416 52.6386 292.163 51.8731 289.436 50.342C286.724 48.795 284.635 46.61 283.168 43.7872C281.701 40.9483 280.967 37.5912 280.967 33.7157C280.967 29.9359 281.701 26.6186 283.168 23.7638C284.635 20.909 286.701 18.6842 289.364 17.0893C292.043 15.4945 295.185 14.697 298.79 14.697C301.214 14.697 303.47 15.0878 305.56 15.8693C307.665 16.6348 309.499 17.7911 311.062 19.3381C312.641 20.8851 313.869 22.8308 314.746 25.1752C315.623 27.5037 316.062 30.2309 316.062 33.3568V36.1558H285.034V29.8402H306.469C306.469 28.3729 306.15 27.0731 305.512 25.9408C304.874 24.8084 303.989 23.9233 302.856 23.2853C301.74 22.6314 300.44 22.3045 298.957 22.3045C297.41 22.3045 296.038 22.6633 294.842 23.381C293.662 24.0828 292.737 25.0317 292.067 26.2278C291.397 27.408 291.055 28.7238 291.039 30.1751V36.1797C291.039 37.9978 291.373 39.5688 292.043 40.8925C292.729 42.2162 293.694 43.2369 294.938 43.9546C296.182 44.6723 297.657 45.0311 299.364 45.0311C300.496 45.0311 301.533 44.8717 302.474 44.5527C303.415 44.2337 304.22 43.7553 304.89 43.1173C305.56 42.4794 306.07 41.6979 306.421 40.7729L315.846 41.3949C315.368 43.6596 314.387 45.6372 312.904 47.3277C311.437 49.0023 309.539 50.3101 307.21 51.2511C304.898 52.1761 302.226 52.6386 299.196 52.6386ZM343.605 15.1755V22.8308H321.476V15.1755H343.605ZM326.5 6.37192H336.691V40.6293C336.691 41.5703 336.834 42.3039 337.122 42.8302C337.409 43.3406 337.807 43.6994 338.318 43.9068C338.844 44.1141 339.45 44.2178 340.136 44.2178C340.614 44.2178 341.093 44.1779 341.571 44.0981C342.05 44.0025 342.416 43.9307 342.672 43.8828L344.274 51.4664C343.764 51.6259 343.046 51.8093 342.121 52.0166C341.196 52.2399 340.072 52.3754 338.748 52.4233C336.292 52.519 334.139 52.192 332.289 51.4424C330.455 50.6929 329.028 49.5286 328.007 47.9497C326.986 46.3708 326.484 44.3772 326.5 41.969V6.37192ZM374.821 65.7004C373.529 65.7004 372.317 65.5968 371.185 65.3894C370.069 65.198 369.144 64.9508 368.41 64.6478L370.706 57.0404C371.903 57.4072 372.979 57.6065 373.936 57.6384C374.909 57.6703 375.746 57.4471 376.448 56.9686C377.166 56.4901 377.748 55.6768 378.194 54.5285L378.792 52.9735L365.611 15.1755H376.328L383.936 42.1604H384.319L391.998 15.1755H402.787L388.505 55.8921C387.819 57.8697 386.886 59.5921 385.706 61.0594C384.542 62.5426 383.067 63.6829 381.28 64.4804C379.494 65.2937 377.341 65.7004 374.821 65.7004ZM424.768 52.6386C421.052 52.6386 417.838 51.8491 415.127 50.2702C412.431 48.6754 410.35 46.4585 408.883 43.6197C407.416 40.7649 406.682 37.4556 406.682 33.6917C406.682 29.896 407.416 26.5787 408.883 23.7399C410.35 20.8851 412.431 18.6682 415.127 17.0893C417.838 15.4945 421.052 14.697 424.768 14.697C428.484 14.697 431.689 15.4945 434.385 17.0893C437.096 18.6682 439.185 20.8851 440.652 23.7399C442.12 26.5787 442.853 29.896 442.853 33.6917C442.853 37.4556 442.12 40.7649 440.652 43.6197C439.185 46.4585 437.096 48.6754 434.385 50.2702C431.689 51.8491 428.484 52.6386 424.768 52.6386ZM424.815 44.7441C426.506 44.7441 427.917 44.2656 429.05 43.3087C430.182 42.3358 431.035 41.0121 431.61 39.3375C432.2 37.6629 432.495 35.7571 432.495 33.62C432.495 31.4829 432.2 29.577 431.61 27.9024C431.035 26.2278 430.182 24.9041 429.05 23.9312C427.917 22.9584 426.506 22.472 424.815 22.472C423.109 22.472 421.674 22.9584 420.509 23.9312C419.361 24.9041 418.492 26.2278 417.902 27.9024C417.328 29.577 417.041 31.4829 417.041 33.62C417.041 35.7571 417.328 37.6629 417.902 39.3375C418.492 41.0121 419.361 42.3358 420.509 43.3087C421.674 44.2656 423.109 44.7441 424.815 44.7441ZM474.391 36.2754V15.1755H484.582V51.9209H474.798V45.2464H474.415C473.586 47.3995 472.206 49.1299 470.276 50.4377C468.363 51.7455 466.026 52.3994 463.267 52.3994C460.811 52.3994 458.65 51.8412 456.784 50.7248C454.918 49.6084 453.459 48.0215 452.406 45.9641C451.369 43.9068 450.843 41.4427 450.827 38.572V15.1755H461.018V36.7539C461.034 38.9229 461.616 40.6373 462.765 41.8973C463.913 43.1572 465.452 43.7872 467.382 43.7872C468.61 43.7872 469.758 43.5081 470.827 42.9499C471.895 42.3757 472.756 41.5304 473.41 40.414C474.08 39.2976 474.407 37.9181 474.391 36.2754ZM494.081 51.9209V15.1755H503.961V21.5868H504.344C505.014 19.3062 506.138 17.5837 507.717 16.4195C509.296 15.2393 511.114 14.6492 513.172 14.6492C513.682 14.6492 514.232 14.6811 514.822 14.7449C515.412 14.8087 515.931 14.8964 516.377 15.008V24.0509C515.899 23.9073 515.237 23.7797 514.392 23.6681C513.546 23.5565 512.773 23.5006 512.071 23.5006C510.572 23.5006 509.232 23.8276 508.052 24.4815C506.888 25.1194 505.963 26.0125 505.277 27.1608C504.607 28.3091 504.272 29.6328 504.272 31.132V51.9209H494.081ZM540.124 51.9209V2.92704H550.315V21.3476H550.626C551.073 20.3588 551.719 19.354 552.564 18.3333C553.425 17.2967 554.541 16.4354 555.913 15.7497C557.301 15.0479 559.023 14.697 561.08 14.697C563.76 14.697 566.232 15.3988 568.496 16.8023C570.761 18.1898 572.571 20.287 573.927 23.0939C575.283 25.8849 575.96 29.3856 575.96 33.596C575.96 37.6948 575.298 41.1556 573.975 43.9785C572.667 46.7855 570.881 48.9146 568.616 50.3659C566.367 51.8013 563.847 52.519 561.056 52.519C559.079 52.519 557.396 52.192 556.009 51.5381C554.637 50.8842 553.513 50.0629 552.636 49.0741C551.758 48.0693 551.089 47.0566 550.626 46.0359H550.172V51.9209H540.124ZM550.1 33.5482C550.1 35.7331 550.403 37.639 551.009 39.2657C551.615 40.8925 552.492 42.1604 553.64 43.0695C554.789 43.9626 556.184 44.4091 557.827 44.4091C559.486 44.4091 560.889 43.9546 562.037 43.0455C563.186 42.1205 564.055 40.8447 564.645 39.2179C565.251 37.5752 565.554 35.6853 565.554 33.5482C565.554 31.427 565.259 29.5611 564.669 27.9503C564.079 26.3395 563.209 25.0795 562.061 24.1705C560.913 23.2614 559.501 22.8069 557.827 22.8069C556.168 22.8069 554.765 23.2455 553.616 24.1226C552.484 24.9998 551.615 26.2438 551.009 27.8546C550.403 29.4654 550.1 31.3633 550.1 33.5482ZM584.108 51.9209V15.1755H594.299V51.9209H584.108ZM589.227 10.4388C587.712 10.4388 586.412 9.93641 585.328 8.93166C584.259 7.91095 583.725 6.69089 583.725 5.27147C583.725 3.868 584.259 2.66389 585.328 1.65913C586.412 0.638426 587.712 0.128073 589.227 0.128073C590.742 0.128073 592.034 0.638426 593.103 1.65913C594.187 2.66389 594.729 3.868 594.729 5.27147C594.729 6.69089 594.187 7.91095 593.103 8.93166C592.034 9.93641 590.742 10.4388 589.227 10.4388ZM613.044 41.347L613.068 29.1225H614.551L626.321 15.1755H638.019L622.206 33.6439H619.79L613.044 41.347ZM603.81 51.9209V2.92704H614.001V51.9209H603.81ZM626.776 51.9209L615.963 35.9166L622.757 28.7158L638.713 51.9209H626.776ZM659.599 52.6386C655.82 52.6386 652.566 51.8731 649.839 50.342C647.128 48.795 645.038 46.61 643.571 43.7872C642.104 40.9483 641.37 37.5912 641.37 33.7157C641.37 29.9359 642.104 26.6186 643.571 23.7638C645.038 20.909 647.104 18.6842 649.767 17.0893C652.446 15.4945 655.588 14.697 659.193 14.697C661.617 14.697 663.874 15.0878 665.963 15.8693C668.068 16.6348 669.902 17.7911 671.465 19.3381C673.044 20.8851 674.272 22.8308 675.149 25.1752C676.026 27.5037 676.465 30.2309 676.465 33.3568V36.1558H645.437V29.8402H666.872C666.872 28.3729 666.553 27.0731 665.915 25.9408C665.277 24.8084 664.392 23.9233 663.26 23.2853C662.143 22.6314 660.843 22.3045 659.36 22.3045C657.813 22.3045 656.442 22.6633 655.245 23.381C654.065 24.0828 653.14 25.0317 652.47 26.2278C651.801 27.408 651.458 28.7238 651.442 30.1751V36.1797C651.442 37.9978 651.777 39.5688 652.446 40.8925C653.132 42.2162 654.097 43.2369 655.341 43.9546C656.585 44.6723 658.06 45.0311 659.767 45.0311C660.899 45.0311 661.936 44.8717 662.877 44.5527C663.818 44.2337 664.623 43.7553 665.293 43.1173C665.963 42.4794 666.473 41.6979 666.824 40.7729L676.25 41.3949C675.771 43.6596 674.79 45.6372 673.307 47.3277C671.84 49.0023 669.942 50.3101 667.614 51.2511C665.301 52.1761 662.63 52.6386 659.599 52.6386ZM258.898 151.7V101.176H268.946V107.348H269.4C269.847 106.359 270.493 105.354 271.338 104.333C272.199 103.297 273.316 102.435 274.687 101.75C276.075 101.048 277.797 100.697 279.855 100.697C282.534 100.697 285.006 101.399 287.271 102.802C289.535 104.19 291.346 106.287 292.701 109.094C294.057 111.885 294.735 115.386 294.735 119.596C294.735 123.695 294.073 127.156 292.749 129.979C291.441 132.785 289.655 134.915 287.39 136.366C285.142 137.801 282.622 138.519 279.831 138.519C277.853 138.519 276.171 138.192 274.783 137.538C273.411 136.884 272.287 136.063 271.41 135.074C270.533 134.069 269.863 133.057 269.4 132.036H269.089V151.7H258.898ZM268.874 119.548C268.874 121.733 269.177 123.639 269.783 125.266C270.389 126.892 271.266 128.16 272.415 129.069C273.563 129.963 274.958 130.409 276.601 130.409C278.26 130.409 279.663 129.955 280.812 129.046C281.96 128.121 282.829 126.845 283.419 125.218C284.025 123.575 284.328 121.685 284.328 119.548C284.328 117.427 284.033 115.561 283.443 113.95C282.853 112.339 281.984 111.08 280.836 110.17C279.687 109.261 278.276 108.807 276.601 108.807C274.943 108.807 273.539 109.245 272.391 110.123C271.258 111 270.389 112.244 269.783 113.855C269.177 115.465 268.874 117.363 268.874 119.548ZM302.876 137.921V101.176H313.067V137.921H302.876ZM307.996 96.4388C306.48 96.4388 305.181 95.9364 304.096 94.9317C303.028 93.911 302.493 92.6909 302.493 91.2715C302.493 89.868 303.028 88.6639 304.096 87.6591C305.181 86.6384 306.48 86.1281 307.996 86.1281C309.511 86.1281 310.802 86.6384 311.871 87.6591C312.956 88.6639 313.498 89.868 313.498 91.2715C313.498 92.6909 312.956 93.911 311.871 94.9317C310.802 95.9364 309.511 96.4388 307.996 96.4388ZM339.181 138.639C335.417 138.639 332.179 137.841 329.468 136.246C326.773 134.636 324.699 132.403 323.248 129.548C321.813 126.693 321.095 123.408 321.095 119.692C321.095 115.928 321.821 112.627 323.272 109.788C324.739 106.933 326.82 104.708 329.516 103.113C332.211 101.502 335.417 100.697 339.133 100.697C342.338 100.697 345.145 101.279 347.554 102.443C349.962 103.608 351.868 105.242 353.271 107.348C354.675 109.453 355.448 111.925 355.592 114.764H345.975C345.703 112.93 344.986 111.454 343.822 110.338C342.673 109.206 341.166 108.639 339.3 108.639C337.721 108.639 336.342 109.07 335.162 109.931C333.997 110.777 333.088 112.013 332.434 113.639C331.78 115.266 331.453 117.236 331.453 119.548C331.453 121.893 331.772 123.886 332.41 125.529C333.064 127.172 333.981 128.424 335.162 129.285C336.342 130.146 337.721 130.577 339.3 130.577C340.464 130.577 341.509 130.337 342.434 129.859C343.375 129.38 344.149 128.687 344.755 127.778C345.377 126.853 345.783 125.744 345.975 124.452H355.592C355.432 127.259 354.667 129.731 353.295 131.868C351.939 133.99 350.065 135.648 347.673 136.844C345.281 138.041 342.45 138.639 339.181 138.639ZM372.698 127.347L372.722 115.122H374.205L385.975 101.176H397.673L381.86 119.644H379.444L372.698 127.347ZM363.464 137.921V88.927H373.655V137.921H363.464ZM386.43 137.921L375.617 121.917L382.411 114.716L398.367 137.921H386.43ZM419.253 138.639C415.474 138.639 412.22 137.873 409.493 136.342C406.782 134.795 404.692 132.61 403.225 129.787C401.758 126.948 401.024 123.591 401.024 119.716C401.024 115.936 401.758 112.619 403.225 109.764C404.692 106.909 406.758 104.684 409.421 103.089C412.101 101.494 415.242 100.697 418.847 100.697C421.271 100.697 423.528 101.088 425.617 101.869C427.722 102.635 429.556 103.791 431.119 105.338C432.698 106.885 433.926 108.831 434.803 111.175C435.68 113.504 436.119 116.231 436.119 119.357V122.156H405.091V115.84H426.526C426.526 114.373 426.207 113.073 425.569 111.941C424.931 110.808 424.046 109.923 422.914 109.285C421.797 108.631 420.497 108.304 419.014 108.304C417.467 108.304 416.096 108.663 414.9 109.381C413.719 110.083 412.794 111.032 412.124 112.228C411.455 113.408 411.112 114.724 411.096 116.175V122.18C411.096 123.998 411.431 125.569 412.101 126.892C412.786 128.216 413.751 129.237 414.995 129.955C416.239 130.672 417.714 131.031 419.421 131.031C420.553 131.031 421.59 130.872 422.531 130.553C423.472 130.234 424.277 129.755 424.947 129.117C425.617 128.479 426.127 127.698 426.478 126.773L435.904 127.395C435.425 129.66 434.444 131.637 432.961 133.328C431.494 135.002 429.596 136.31 427.268 137.251C424.955 138.176 422.284 138.639 419.253 138.639ZM457.657 138.519C454.866 138.519 452.338 137.801 450.074 136.366C447.825 134.915 446.039 132.785 444.715 129.979C443.407 127.156 442.753 123.695 442.753 119.596C442.753 115.386 443.431 111.885 444.787 109.094C446.142 106.287 447.945 104.19 450.193 102.802C452.458 101.399 454.938 100.697 457.633 100.697C459.691 100.697 461.405 101.048 462.777 101.75C464.164 102.435 465.281 103.297 466.126 104.333C466.987 105.354 467.641 106.359 468.088 107.348H468.399V88.927H478.566V137.921H468.518V132.036H468.088C467.609 133.057 466.931 134.069 466.054 135.074C465.193 136.063 464.068 136.884 462.681 137.538C461.309 138.192 459.635 138.519 457.657 138.519ZM460.887 130.409C462.529 130.409 463.917 129.963 465.049 129.069C466.198 128.16 467.075 126.892 467.681 125.266C468.303 123.639 468.614 121.733 468.614 119.548C468.614 117.363 468.311 115.465 467.705 113.855C467.099 112.244 466.222 111 465.073 110.123C463.925 109.245 462.529 108.807 460.887 108.807C459.212 108.807 457.801 109.261 456.652 110.17C455.504 111.08 454.635 112.339 454.045 113.95C453.455 115.561 453.16 117.427 453.16 119.548C453.16 121.685 453.455 123.575 454.045 125.218C454.651 126.845 455.52 128.121 456.652 129.046C457.801 129.955 459.212 130.409 460.887 130.409ZM528.795 122.275V101.176H538.986V137.921H529.202V131.246H528.819C527.99 133.399 526.61 135.13 524.68 136.438C522.766 137.745 520.43 138.399 517.671 138.399C515.215 138.399 513.054 137.841 511.188 136.725C509.322 135.608 507.863 134.021 506.81 131.964C505.773 129.907 505.247 127.443 505.231 124.572V101.176H515.422V122.754C515.438 124.923 516.02 126.637 517.168 127.897C518.317 129.157 519.856 129.787 521.786 129.787C523.014 129.787 524.162 129.508 525.23 128.95C526.299 128.376 527.16 127.53 527.814 126.414C528.484 125.298 528.811 123.918 528.795 122.275ZM548.485 151.7V101.176H558.533V107.348H558.987C559.434 106.359 560.08 105.354 560.925 104.333C561.786 103.297 562.902 102.435 564.274 101.75C565.662 101.048 567.384 100.697 569.441 100.697C572.121 100.697 574.593 101.399 576.857 102.802C579.122 104.19 580.932 106.287 582.288 109.094C583.644 111.885 584.321 115.386 584.321 119.596C584.321 123.695 583.659 127.156 582.336 129.979C581.028 132.785 579.242 134.915 576.977 136.366C574.728 137.801 572.208 138.519 569.417 138.519C567.44 138.519 565.757 138.192 564.37 137.538C562.998 136.884 561.874 136.063 560.997 135.074C560.119 134.069 559.45 133.057 558.987 132.036H558.676V151.7H548.485ZM558.461 119.548C558.461 121.733 558.764 123.639 559.37 125.266C559.976 126.892 560.853 128.16 562.001 129.069C563.15 129.963 564.545 130.409 566.188 130.409C567.847 130.409 569.25 129.955 570.398 129.046C571.547 128.121 572.416 126.845 573.006 125.218C573.612 123.575 573.915 121.685 573.915 119.548C573.915 117.427 573.62 115.561 573.03 113.95C572.44 112.339 571.571 111.08 570.422 110.17C569.274 109.261 567.862 108.807 566.188 108.807C564.529 108.807 563.126 109.245 561.977 110.123C560.845 111 559.976 112.244 559.37 113.855C558.764 115.465 558.461 117.363 558.461 119.548ZM609.402 137.921V101.176H619.593V137.921H609.402ZM614.521 96.4388C613.006 96.4388 611.706 95.9364 610.622 94.9317C609.553 93.911 609.019 92.6909 609.019 91.2715C609.019 89.868 609.553 88.6639 610.622 87.6591C611.706 86.6384 613.006 86.1281 614.521 86.1281C616.036 86.1281 617.328 86.6384 618.397 87.6591C619.481 88.6639 620.023 89.868 620.023 91.2715C620.023 92.6909 619.481 93.911 618.397 94.9317C617.328 95.9364 616.036 96.4388 614.521 96.4388ZM639.295 116.677V137.921H629.104V101.176H638.817V107.659H639.247C640.06 105.521 641.424 103.831 643.338 102.587C645.252 101.327 647.572 100.697 650.299 100.697C652.851 100.697 655.076 101.255 656.974 102.372C658.872 103.488 660.347 105.083 661.4 107.156C662.452 109.214 662.979 111.67 662.979 114.524V137.921H652.787V116.343C652.803 114.094 652.229 112.339 651.065 111.08C649.901 109.804 648.298 109.166 646.256 109.166C644.885 109.166 643.673 109.461 642.62 110.051C641.584 110.641 640.77 111.502 640.18 112.635C639.606 113.751 639.311 115.099 639.295 116.677Z" fill="#B65E0C"/>
<path d="M275.66 225.591C271.801 225.591 268.372 224.929 265.373 223.605C262.391 222.265 260.046 220.423 258.34 218.079C256.633 215.735 255.772 213.039 255.756 209.993H269.153C269.169 210.934 269.456 211.779 270.014 212.529C270.588 213.263 271.37 213.837 272.359 214.251C273.348 214.666 274.48 214.873 275.756 214.873C276.984 214.873 278.068 214.658 279.009 214.227C279.95 213.781 280.684 213.167 281.21 212.385C281.736 211.604 281.992 210.711 281.976 209.706C281.992 208.717 281.689 207.84 281.067 207.075C280.461 206.309 279.607 205.711 278.507 205.28C277.406 204.85 276.139 204.634 274.703 204.634H269.727V195.448H274.703C276.027 195.448 277.191 195.233 278.196 194.802C279.217 194.372 280.006 193.773 280.564 193.008C281.138 192.242 281.417 191.365 281.402 190.376C281.417 189.419 281.186 188.574 280.708 187.841C280.229 187.107 279.559 186.533 278.698 186.118C277.853 185.703 276.872 185.496 275.756 185.496C274.544 185.496 273.459 185.711 272.502 186.142C271.561 186.573 270.82 187.171 270.277 187.936C269.735 188.702 269.456 189.579 269.44 190.568H256.713C256.729 187.569 257.551 184.922 259.177 182.625C260.82 180.329 263.069 178.527 265.923 177.219C268.778 175.911 272.056 175.257 275.756 175.257C279.376 175.257 282.574 175.871 285.349 177.099C288.14 178.327 290.317 180.018 291.88 182.171C293.459 184.308 294.24 186.756 294.224 189.515C294.256 192.258 293.315 194.507 291.401 196.261C289.503 198.016 287.095 199.052 284.177 199.371V199.754C288.132 200.185 291.106 201.397 293.1 203.39C295.093 205.368 296.074 207.856 296.042 210.854C296.058 213.725 295.197 216.269 293.459 218.486C291.736 220.703 289.336 222.441 286.258 223.701C283.196 224.961 279.663 225.591 275.66 225.591ZM324.668 226.261C320.218 226.245 316.374 225.216 313.137 223.175C309.899 221.133 307.403 218.191 305.649 214.347C303.895 210.503 303.025 205.894 303.041 200.52C303.057 195.129 303.934 190.552 305.673 186.788C307.427 183.024 309.915 180.161 313.137 178.2C316.374 176.238 320.218 175.257 324.668 175.257C329.117 175.257 332.961 176.246 336.198 178.224C339.436 180.185 341.932 183.048 343.686 186.812C345.44 190.576 346.31 195.145 346.294 200.52C346.294 205.926 345.417 210.551 343.662 214.395C341.908 218.238 339.412 221.181 336.174 223.222C332.953 225.248 329.117 226.261 324.668 226.261ZM324.668 215.447C326.964 215.447 328.846 214.251 330.313 211.859C331.797 209.451 332.53 205.671 332.514 200.52C332.514 197.155 332.179 194.403 331.509 192.266C330.84 190.129 329.915 188.55 328.734 187.53C327.554 186.493 326.199 185.975 324.668 185.975C322.371 185.975 320.497 187.139 319.046 189.467C317.594 191.796 316.853 195.48 316.821 200.52C316.805 203.949 317.132 206.771 317.802 208.988C318.472 211.189 319.397 212.816 320.577 213.869C321.773 214.921 323.136 215.447 324.668 215.447ZM368.749 224.921V188.176H381.284V195.161H381.667C382.432 192.864 383.74 191.046 385.59 189.707C387.44 188.367 389.641 187.697 392.193 187.697C394.777 187.697 397.001 188.383 398.867 189.754C400.733 191.11 401.858 192.912 402.241 195.161H402.623C403.245 192.912 404.569 191.11 406.594 189.754C408.62 188.383 410.996 187.697 413.723 187.697C417.248 187.697 420.103 188.829 422.288 191.094C424.489 193.359 425.589 196.373 425.589 200.137V224.921H412.384V203.486C412.384 201.875 411.977 200.615 411.164 199.706C410.35 198.781 409.258 198.319 407.886 198.319C406.531 198.319 405.454 198.781 404.657 199.706C403.875 200.615 403.485 201.875 403.485 203.486V224.921H390.853V203.486C390.853 201.875 390.447 200.615 389.633 199.706C388.82 198.781 387.727 198.319 386.356 198.319C385.447 198.319 384.665 198.526 384.011 198.941C383.357 199.355 382.847 199.953 382.48 200.735C382.129 201.5 381.954 202.418 381.954 203.486V224.921H368.749ZM433.449 224.921V188.176H446.655V224.921H433.449ZM440.052 184.348C438.266 184.348 436.735 183.758 435.459 182.578C434.183 181.397 433.545 179.978 433.545 178.319C433.545 176.661 434.183 175.241 435.459 174.061C436.735 172.881 438.266 172.291 440.052 172.291C441.854 172.291 443.385 172.881 444.645 174.061C445.921 175.241 446.559 176.661 446.559 178.319C446.559 179.978 445.921 181.397 444.645 182.578C443.385 183.758 441.854 184.348 440.052 184.348ZM467.936 204.252V224.921H454.73V188.176H467.266V195.161H467.649C468.446 192.832 469.85 191.006 471.859 189.683C473.885 188.359 476.245 187.697 478.94 187.697C481.54 187.697 483.797 188.295 485.71 189.491C487.64 190.671 489.131 192.298 490.184 194.372C491.253 196.445 491.779 198.813 491.763 201.477V224.921H478.558V204.252C478.573 202.433 478.111 201.006 477.17 199.969C476.245 198.933 474.953 198.414 473.295 198.414C472.21 198.414 471.261 198.654 470.448 199.132C469.65 199.595 469.036 200.264 468.606 201.142C468.175 202.003 467.952 203.04 467.936 204.252ZM523.456 208.845V188.176H536.662V224.921H524.126V217.935H523.743C522.946 220.28 521.55 222.114 519.557 223.438C517.563 224.745 515.195 225.399 512.452 225.399C509.884 225.399 507.635 224.809 505.706 223.629C503.792 222.449 502.301 220.822 501.232 218.749C500.179 216.676 499.645 214.299 499.629 211.62V188.176H512.835V208.845C512.851 210.663 513.313 212.09 514.222 213.127C515.147 214.164 516.439 214.682 518.098 214.682C519.198 214.682 520.147 214.451 520.944 213.988C521.758 213.51 522.38 212.84 522.81 211.979C523.257 211.102 523.472 210.057 523.456 208.845ZM566.639 188.176V197.745H542.429V188.176H566.639ZM547.118 179.372H560.323V213.103C560.323 213.613 560.411 214.044 560.586 214.395C560.762 214.73 561.033 214.985 561.4 215.16C561.766 215.32 562.237 215.4 562.811 215.4C563.21 215.4 563.672 215.352 564.198 215.256C564.741 215.16 565.139 215.081 565.395 215.017L567.308 224.299C566.718 224.474 565.873 224.69 564.773 224.945C563.688 225.2 562.396 225.367 560.897 225.447C557.867 225.607 555.323 225.296 553.266 224.514C551.208 223.717 549.661 222.465 548.625 220.758C547.588 219.052 547.086 216.915 547.118 214.347V179.372ZM590.587 225.591C586.664 225.591 583.283 224.841 580.444 223.342C577.621 221.827 575.444 219.658 573.913 216.835C572.398 213.996 571.64 210.599 571.64 206.644C571.64 202.848 572.406 199.531 573.937 196.692C575.468 193.853 577.629 191.644 580.42 190.065C583.211 188.487 586.504 187.697 590.3 187.697C593.075 187.697 595.587 188.128 597.836 188.989C600.084 189.85 602.006 191.102 603.601 192.745C605.196 194.372 606.424 196.349 607.285 198.678C608.146 201.006 608.577 203.63 608.577 206.548V209.61H575.755V202.338H596.424C596.408 201.285 596.137 200.36 595.611 199.563C595.1 198.749 594.407 198.119 593.529 197.673C592.668 197.21 591.687 196.979 590.587 196.979C589.518 196.979 588.538 197.21 587.644 197.673C586.751 198.119 586.034 198.741 585.491 199.539C584.965 200.336 584.686 201.269 584.654 202.338V210.184C584.654 211.365 584.901 212.417 585.396 213.342C585.89 214.267 586.6 214.993 587.525 215.519C588.45 216.046 589.566 216.309 590.874 216.309C591.783 216.309 592.612 216.181 593.362 215.926C594.128 215.671 594.781 215.304 595.324 214.825C595.866 214.331 596.265 213.741 596.52 213.055H608.577C608.162 215.607 607.181 217.824 605.634 219.706C604.087 221.572 602.038 223.023 599.486 224.06C596.95 225.08 593.984 225.591 590.587 225.591ZM648.9 200.137H636.748C636.684 199.387 636.421 198.741 635.958 198.199C635.496 197.657 634.898 197.242 634.164 196.955C633.446 196.652 632.649 196.501 631.772 196.501C630.639 196.501 629.666 196.708 628.853 197.123C628.04 197.537 627.641 198.127 627.657 198.893C627.641 199.435 627.872 199.938 628.351 200.4C628.845 200.863 629.794 201.221 631.198 201.477L638.661 202.816C642.425 203.502 645.224 204.658 647.058 206.285C648.908 207.896 649.841 210.057 649.857 212.768C649.841 215.384 649.06 217.656 647.513 219.586C645.982 221.5 643.885 222.983 641.221 224.036C638.574 225.072 635.551 225.591 632.154 225.591C626.541 225.591 622.147 224.442 618.973 222.146C615.815 219.849 614.053 216.819 613.686 213.055H626.796C626.971 214.219 627.545 215.121 628.518 215.758C629.507 216.38 630.751 216.691 632.25 216.691C633.462 216.691 634.459 216.484 635.24 216.069C636.038 215.655 636.445 215.065 636.461 214.299C636.445 213.597 636.094 213.039 635.408 212.625C634.738 212.21 633.686 211.875 632.25 211.62L625.743 210.472C621.995 209.818 619.188 208.574 617.322 206.74C615.456 204.906 614.531 202.545 614.547 199.658C614.531 197.107 615.201 194.946 616.557 193.175C617.928 191.389 619.882 190.034 622.418 189.108C624.97 188.168 627.992 187.697 631.485 187.697C636.795 187.697 640.982 188.797 644.044 190.998C647.122 193.199 648.741 196.245 648.9 200.137Z" fill="#C21E1D"/>
<path d="M967.675 123.039C967.675 172.014 924.987 212.561 871.25 212.561C817.513 212.561 774.825 172.014 774.825 123.039C774.825 74.0648 817.513 33.518 871.25 33.518C924.987 33.518 967.675 74.0648 967.675 123.039Z" fill="white" stroke="#B65E0C" stroke-width="14.6468"/>
<rect x="727.223" y="9.10425" width="144.027" height="227.87" rx="18.3085" fill="#B65E0C"/>
<path d="M774.754 150.751C770.558 150.751 766.831 150.031 763.571 148.592C760.329 147.136 757.781 145.133 755.925 142.585C754.07 140.036 753.134 137.106 753.117 133.794H767.68C767.698 134.817 768.01 135.736 768.617 136.551C769.241 137.349 770.09 137.973 771.165 138.424C772.24 138.874 773.471 139.1 774.858 139.1C776.193 139.1 777.372 138.866 778.395 138.398C779.418 137.912 780.215 137.245 780.788 136.395C781.36 135.546 781.637 134.575 781.62 133.482C781.637 132.407 781.308 131.454 780.632 130.622C779.973 129.789 779.045 129.139 777.849 128.671C776.653 128.203 775.274 127.969 773.714 127.969H768.305V117.983H773.714C775.153 117.983 776.418 117.749 777.511 117.28C778.62 116.812 779.479 116.162 780.085 115.33C780.71 114.498 781.013 113.544 780.996 112.469C781.013 111.429 780.762 110.51 780.241 109.713C779.721 108.915 778.993 108.291 778.057 107.84C777.138 107.389 776.072 107.164 774.858 107.164C773.54 107.164 772.361 107.398 771.321 107.866C770.298 108.334 769.492 108.984 768.903 109.817C768.313 110.649 768.01 111.602 767.992 112.677H754.157C754.174 109.418 755.067 106.54 756.836 104.043C758.621 101.547 761.066 99.5874 764.169 98.1657C767.273 96.744 770.836 96.0332 774.858 96.0332C778.794 96.0332 782.27 96.7007 785.287 98.0357C788.321 99.3707 790.687 101.208 792.386 103.549C794.103 105.872 794.952 108.534 794.935 111.533C794.97 114.515 793.947 116.96 791.866 118.867C789.803 120.774 787.185 121.901 784.012 122.248V122.664C788.312 123.132 791.546 124.45 793.713 126.617C795.88 128.767 796.946 131.471 796.912 134.731C796.929 137.851 795.993 140.617 794.103 143.027C792.23 145.437 789.621 147.326 786.275 148.696C782.946 150.066 779.106 150.751 774.754 150.751ZM826.565 151.479C821.728 151.461 817.55 150.343 814.03 148.124C810.511 145.905 807.797 142.706 805.89 138.528C803.983 134.349 803.038 129.339 803.056 123.496C803.073 117.636 804.026 112.66 805.916 108.568C807.823 104.477 810.528 101.365 814.03 99.232C817.55 97.0995 821.728 96.0332 826.565 96.0332C831.402 96.0332 835.581 97.1081 839.1 99.258C842.62 101.391 845.333 104.503 847.24 108.594C849.148 112.686 850.092 117.653 850.075 123.496C850.075 129.373 849.122 134.401 847.214 138.58C845.307 142.758 842.594 145.957 839.074 148.176C835.572 150.378 831.402 151.479 826.565 151.479ZM826.565 139.724C829.062 139.724 831.108 138.424 832.703 135.823C834.315 133.205 835.113 129.096 835.095 123.496C835.095 119.838 834.731 116.847 834.003 114.524C833.275 112.201 832.269 110.484 830.986 109.374C829.703 108.248 828.23 107.684 826.565 107.684C824.069 107.684 822.032 108.95 820.454 111.481C818.876 114.012 818.07 118.017 818.035 123.496C818.018 127.224 818.373 130.292 819.101 132.702C819.83 135.095 820.835 136.863 822.118 138.008C823.419 139.152 824.901 139.724 826.565 139.724Z" fill="white"/>
<rect x="954.248" y="116.203" width="13.6722" height="19.5291" transform="rotate(90 954.248 116.203)" fill="#B65E0C"/>
<rect x="878.574" y="67.2112" width="14.6468" height="18.2296" transform="rotate(180 878.574 67.2112)" fill="#B65E0C"/>
<rect x="878.574" y="198.236" width="14.6468" height="18.2296" transform="rotate(180 878.574 198.236)" fill="#B65E0C"/>
<rect width="5.76323" height="19.3283" rx="2.44113" transform="matrix(0.422246 0.906482 -0.926586 0.376083 946.525 87.7195)" fill="#B65E0C"/>
<rect width="5.90682" height="18.8792" rx="2.44113" transform="matrix(0.736918 0.675982 -0.725037 0.68871 917.893 59.2356)" fill="#B65E0C"/>
<rect width="5.98843" height="18.6141" rx="2.44113" transform="matrix(-0.859504 0.511129 -0.563711 -0.825972 914.871 186.714)" fill="#B65E0C"/>
<rect width="5.85746" height="19.036" rx="2.44113" transform="matrix(-0.648592 0.761136 -0.802878 -0.596143 941.598 160.593)" fill="#B65E0C"/>
<path d="M14.1953 266.207C14.1903 268.328 14.8583 270.404 16.1149 272.17C17.3715 273.937 19.1602 275.316 21.2549 276.132C23.3495 276.948 25.656 277.165 27.8827 276.756C30.1094 276.347 32.1563 275.329 33.7645 273.833C35.3727 272.336 36.47 270.427 36.9177 268.347C37.3654 266.267 37.1432 264.109 36.2795 262.147C35.4157 260.186 33.949 258.507 32.065 257.325C30.1809 256.142 27.964 255.508 25.6947 255.504C24.187 255.497 22.6928 255.77 21.2979 256.305C19.9031 256.84 18.635 257.627 17.5665 258.622C16.498 259.616 15.6501 260.798 15.0716 262.1C14.4931 263.402 14.1953 264.797 14.1953 266.207Z" fill="#362A2B"/>
<path d="M0.943477 266.183C0.928378 270.757 2.36519 275.233 5.0721 279.044C7.77901 282.855 11.6343 285.829 16.1501 287.591C20.6658 289.352 25.639 289.821 30.4402 288.939C35.2415 288.057 39.6549 285.863 43.1219 282.635C46.5889 279.407 48.9537 275.29 49.9169 270.805C50.8802 266.32 50.3986 261.669 48.5331 257.44C46.6676 253.211 43.5021 249.594 39.4372 247.048C35.3723 244.501 30.5907 243.14 25.6976 243.135C19.148 243.129 12.8632 245.552 8.22231 249.873C3.58146 254.194 0.963689 260.059 0.943477 266.183ZM10.4585 266.183C10.4585 263.36 11.3537 260.601 13.031 258.254C14.7083 255.907 17.0923 254.078 19.8816 252.998C22.6708 251.918 25.74 251.635 28.7011 252.186C31.6621 252.737 34.3821 254.096 36.5169 256.092C38.6517 258.087 40.1054 260.63 40.6944 263.399C41.2834 266.167 40.9811 269.036 39.8258 271.644C38.6704 274.252 36.7139 276.481 34.2037 278.049C31.6934 279.617 28.7422 280.454 25.7231 280.454C21.6791 280.454 17.8003 278.954 14.9384 276.282C12.0764 273.611 10.4652 269.987 10.4585 266.207V266.183Z" fill="#1D1715"/>
<path d="M10.5083 266.207C10.4831 269.034 11.3569 271.805 13.0188 274.167C14.6807 276.53 17.0558 278.377 19.8428 279.476C22.6297 280.574 25.7028 280.874 28.6722 280.337C31.6416 279.8 34.3734 278.45 36.5209 276.459C38.6685 274.468 40.135 271.925 40.7343 269.154C41.3337 266.382 41.039 263.507 39.8874 260.892C38.7359 258.277 36.7796 256.041 34.2666 254.468C31.7537 252.895 28.7975 252.055 25.773 252.054C21.7465 252.054 17.883 253.542 15.024 256.192C12.1649 258.843 10.5419 262.442 10.5083 266.207ZM12.1366 266.207C12.1366 263.703 12.931 261.256 14.4193 259.174C15.9077 257.093 18.023 255.471 20.4976 254.514C22.9722 253.557 25.6949 253.308 28.3211 253.798C30.9472 254.288 33.3588 255.495 35.2507 257.268C37.1425 259.04 38.4295 261.296 38.9489 263.753C39.4683 266.209 39.1966 268.754 38.1683 271.065C37.14 273.377 35.4012 275.352 33.1721 276.739C30.943 278.127 28.3238 278.865 25.6458 278.86C22.0783 278.829 18.6682 277.482 16.1574 275.112C13.6466 272.743 12.2382 269.542 12.2383 266.207H12.1366Z" fill="#DADADA"/>
<path d="M16.3594 266.207C16.3544 267.929 16.8962 269.615 17.9163 271.05C18.9364 272.484 20.3889 273.604 22.0899 274.266C23.7909 274.929 25.6639 275.105 27.4718 274.771C29.2797 274.438 30.9412 273.611 32.246 272.394C33.5508 271.178 34.4401 269.627 34.8015 267.938C35.1628 266.248 34.9799 264.497 34.2759 262.905C33.5719 261.313 32.3785 259.952 30.8467 258.994C29.3148 258.036 27.5136 257.525 25.6709 257.525C23.2057 257.525 20.8411 258.439 19.0956 260.066C17.3501 261.694 16.3661 263.902 16.3594 266.207ZM19.8194 266.207C19.8244 265.125 20.1726 264.068 20.8197 263.171C21.4669 262.274 22.384 261.577 23.4551 261.167C24.5262 260.758 25.7032 260.654 26.8373 260.87C27.9714 261.085 29.0116 261.611 29.8263 262.379C30.6411 263.147 31.1939 264.125 31.4147 265.187C31.6356 266.249 31.5146 267.348 31.0671 268.346C30.6196 269.344 29.8656 270.195 28.9005 270.792C27.9355 271.39 26.8027 271.706 25.6454 271.701C24.1024 271.682 22.6297 271.094 21.5481 270.065C20.4665 269.036 19.8635 267.649 19.8703 266.207H19.8194Z" fill="#EDEDED"/>
<path d="M19.8682 266.206C19.8154 266.954 19.9273 267.703 20.1968 268.408C20.4663 269.113 20.8878 269.759 21.4352 270.306C21.9825 270.852 22.644 271.288 23.3788 271.586C24.1136 271.884 24.906 272.038 25.7069 272.038C26.5078 272.038 27.3002 271.884 28.035 271.586C28.7698 271.288 29.4313 270.852 29.9787 270.306C30.526 269.759 30.9475 269.113 31.2171 268.408C31.4866 267.703 31.5984 266.954 31.5456 266.206C31.4478 264.821 30.7901 263.522 29.7058 262.573C28.6216 261.624 27.1921 261.096 25.7069 261.096C24.2218 261.096 22.7922 261.624 21.708 262.573C20.6238 263.522 19.9661 264.821 19.8682 266.206ZM23.4808 264.137C23.4049 264.211 23.314 264.269 23.2135 264.309C23.1129 264.349 23.0049 264.369 22.8957 264.369C22.7865 264.369 22.6784 264.349 22.5779 264.309C22.4774 264.269 22.3865 264.211 22.3105 264.137C22.2313 264.064 22.1684 263.977 22.1255 263.881C22.0825 263.785 22.0604 263.682 22.0604 263.578C22.0604 263.474 22.0825 263.371 22.1255 263.275C22.1684 263.179 22.2313 263.092 22.3105 263.019C22.4702 262.882 22.679 262.806 22.8957 262.806C23.1124 262.806 23.3212 262.882 23.4808 263.019C23.5568 263.095 23.6159 263.185 23.6545 263.283C23.6931 263.38 23.7106 263.484 23.7059 263.588C23.7011 263.692 23.6743 263.794 23.6269 263.889C23.5795 263.983 23.5126 264.067 23.4299 264.137H23.4808ZM26.203 262.877C26.203 262.966 26.1747 263.053 26.1216 263.128C26.0684 263.202 25.993 263.26 25.9046 263.294C25.8163 263.328 25.7191 263.337 25.6254 263.32C25.5316 263.302 25.4454 263.259 25.3778 263.196C25.3102 263.133 25.2642 263.052 25.2455 262.965C25.2269 262.877 25.2365 262.786 25.2731 262.704C25.3096 262.621 25.3716 262.55 25.4511 262.501C25.5306 262.451 25.624 262.425 25.7196 262.425C25.7798 262.428 25.8387 262.442 25.8931 262.466C25.9474 262.491 25.996 262.525 26.0362 262.567C26.0764 262.609 26.1073 262.658 26.1272 262.711C26.1471 262.764 26.1556 262.82 26.1521 262.877H26.203ZM29.1287 264.137C29.0123 264.249 28.8628 264.326 28.6993 264.358C28.5358 264.39 28.3658 264.376 28.211 264.317C28.0562 264.259 27.9236 264.158 27.8303 264.029C27.737 263.899 27.6872 263.746 27.6872 263.59C27.6872 263.434 27.737 263.281 27.8303 263.152C27.9236 263.022 28.0562 262.922 28.211 262.863C28.3658 262.804 28.5358 262.79 28.6993 262.822C28.8628 262.854 29.0123 262.931 29.1287 263.043C29.204 263.117 29.2626 263.205 29.3009 263.3C29.3392 263.396 29.3565 263.498 29.3517 263.6C29.347 263.702 29.3203 263.802 29.2732 263.895C29.2262 263.987 29.1597 264.069 29.0779 264.137H29.1287ZM29.3068 266.682C29.1786 266.682 29.0557 266.635 28.965 266.55C28.8744 266.465 28.8235 266.35 28.8235 266.23C28.8235 266.11 28.8744 265.995 28.965 265.911C29.0557 265.826 29.1786 265.778 29.3068 265.778C29.4351 265.778 29.558 265.826 29.6486 265.911C29.7393 265.995 29.7902 266.11 29.7902 266.23C29.7902 266.35 29.7393 266.465 29.6486 266.55C29.558 266.635 29.4351 266.682 29.3068 266.682ZM27.9584 268.323C28.1201 268.216 28.3171 268.166 28.5145 268.182C28.7119 268.198 28.897 268.278 29.0371 268.409C29.1772 268.54 29.2632 268.713 29.28 268.898C29.2968 269.082 29.2432 269.266 29.1287 269.417C29.0581 269.511 28.9666 269.589 28.8605 269.645C28.7544 269.702 28.6363 269.736 28.5145 269.746C28.3927 269.756 28.2701 269.741 28.1553 269.701C28.0405 269.662 27.9362 269.6 27.8498 269.519C27.7633 269.438 27.6968 269.341 27.6549 269.233C27.6129 269.126 27.5965 269.011 27.6069 268.898C27.6172 268.784 27.6541 268.673 27.7148 268.574C27.7755 268.475 27.8587 268.389 27.9584 268.323ZM25.2108 269.584C25.2107 269.523 25.224 269.462 25.2499 269.405C25.2758 269.349 25.3136 269.298 25.3613 269.256C25.4089 269.213 25.4652 269.181 25.5268 269.159C25.5884 269.138 25.6541 269.129 25.7196 269.132C25.8478 269.132 25.9708 269.18 26.0615 269.264C26.1521 269.349 26.203 269.464 26.203 269.584C26.2031 269.645 26.1898 269.706 26.1639 269.763C26.1381 269.819 26.1002 269.87 26.0526 269.912C26.005 269.955 25.9486 269.987 25.887 270.009C25.8254 270.03 25.7598 270.039 25.6942 270.036C25.6266 270.043 25.5582 270.036 25.4936 270.016C25.4289 269.996 25.3694 269.964 25.319 269.922C25.2686 269.879 25.2283 269.827 25.2009 269.769C25.1735 269.71 25.1596 269.648 25.1599 269.584H25.2108ZM23.5062 266.23C23.5062 265.821 23.6361 265.421 23.8793 265.081C24.1225 264.74 24.4682 264.475 24.8726 264.318C25.2771 264.162 25.7221 264.121 26.1514 264.201C26.5808 264.281 26.9752 264.478 27.2847 264.767C27.5943 265.056 27.8051 265.425 27.8905 265.827C27.9759 266.228 27.9321 266.644 27.7645 267.022C27.597 267.4 27.3133 267.723 26.9493 267.951C26.5853 268.178 26.1574 268.3 25.7196 268.3C25.4247 268.306 25.1314 268.257 24.857 268.156C24.5825 268.055 24.3325 267.903 24.1215 267.711C23.9106 267.518 23.743 267.288 23.6286 267.033C23.5142 266.779 23.4553 266.506 23.4554 266.23H23.5062ZM22.2851 268.323C22.3632 268.249 22.4563 268.19 22.5589 268.15C22.6616 268.11 22.7717 268.09 22.883 268.09C22.9942 268.09 23.1043 268.11 23.207 268.15C23.3096 268.19 23.4027 268.249 23.4808 268.323C23.5593 268.394 23.6217 268.479 23.6643 268.573C23.7069 268.667 23.7289 268.768 23.7289 268.87C23.7289 268.973 23.7069 269.074 23.6643 269.168C23.6217 269.262 23.5593 269.347 23.4808 269.417C23.4027 269.492 23.3096 269.55 23.207 269.591C23.1043 269.631 22.9942 269.651 22.883 269.651C22.7717 269.651 22.6616 269.631 22.5589 269.591C22.4563 269.55 22.3632 269.492 22.2851 269.417C22.1314 269.274 22.0408 269.082 22.0314 268.88C22.022 268.677 22.0943 268.478 22.2342 268.323H22.2851ZM21.6491 266.23C21.6454 266.17 21.6553 266.11 21.6783 266.053C21.7013 265.997 21.7368 265.946 21.7824 265.903C21.8281 265.86 21.8829 265.827 21.9432 265.806C22.0035 265.784 22.068 265.775 22.1324 265.778C22.2606 265.778 22.3836 265.826 22.4743 265.911C22.5649 265.995 22.6158 266.11 22.6158 266.23C22.6097 266.348 22.5567 266.46 22.4674 266.543C22.378 266.627 22.2587 266.676 22.1324 266.682C22.0648 266.689 21.9965 266.682 21.9318 266.662C21.8672 266.643 21.8077 266.611 21.7572 266.568C21.7068 266.525 21.6666 266.473 21.6392 266.415C21.6118 266.357 21.5978 266.294 21.5982 266.23H21.6491Z" fill="#C6C6C6"/>
<path d="M12.2383 266.207C12.2333 268.709 13.0221 271.157 14.5052 273.241C15.9882 275.324 18.0988 276.95 20.57 277.912C23.0412 278.874 25.762 279.129 28.3885 278.646C31.0149 278.162 33.429 276.961 35.3254 275.195C37.2218 273.428 38.5154 271.176 39.0426 268.722C39.5697 266.269 39.3068 263.724 38.287 261.41C37.2673 259.096 35.5365 257.117 33.3135 255.723C31.0906 254.328 28.4753 253.581 25.7984 253.577C24.0201 253.57 22.2579 253.893 20.613 254.524C18.9681 255.156 17.4729 256.086 16.213 257.259C14.9532 258.433 13.9535 259.827 13.2715 261.362C12.5894 262.898 12.2383 264.544 12.2383 266.207ZM17.1739 261.569C16.944 261.817 16.628 261.983 16.281 262.036C15.934 262.089 15.578 262.027 15.2751 261.86C14.9722 261.693 14.7417 261.432 14.6238 261.122C14.5058 260.812 14.508 260.474 14.6298 260.165C14.8596 259.916 15.1756 259.751 15.5226 259.698C15.8696 259.644 16.2256 259.707 16.5285 259.874C16.8314 260.041 17.0619 260.302 17.1799 260.612C17.2978 260.922 17.2957 261.26 17.1739 261.569ZM25.773 257.525C27.6157 257.525 29.4169 258.036 30.9487 258.994C32.4805 259.951 33.674 261.312 34.378 262.905C35.082 264.497 35.2649 266.248 34.9036 267.938C34.5422 269.627 33.6529 271.178 32.3481 272.394C31.0433 273.611 29.3818 274.438 27.5739 274.771C25.766 275.105 23.8929 274.929 22.192 274.266C20.491 273.604 19.0385 272.484 18.0184 271.05C16.9983 269.615 16.4565 267.929 16.4615 266.207C16.4746 263.92 17.4468 261.73 19.1689 260.107C20.8911 258.483 23.2258 257.556 25.6712 257.525H25.773ZM20.8119 258.191C20.4768 258.332 20.0965 258.346 19.7505 258.231C19.4044 258.115 19.1193 257.88 18.9547 257.573C18.866 257.356 18.8456 257.12 18.8958 256.893C18.9461 256.666 19.0649 256.457 19.2382 256.291C19.4115 256.125 19.6321 256.009 19.8738 255.957C20.1154 255.905 20.3681 255.918 20.6018 255.996C20.8355 256.074 21.0404 256.213 21.1923 256.396C21.3441 256.579 21.4366 256.8 21.4588 257.031C21.4809 257.262 21.4317 257.494 21.3171 257.699C21.2024 257.905 21.0271 258.076 20.8119 258.191ZM27.0705 255.551C27.1083 255.727 27.1039 255.909 27.0575 256.083C27.0111 256.257 26.9239 256.42 26.8022 256.559C26.6805 256.697 26.5273 256.809 26.3537 256.886C26.1801 256.963 25.9905 257.003 25.7984 257.003C25.6063 257.003 25.4166 256.963 25.243 256.886C25.0695 256.809 24.9163 256.697 24.7946 256.559C24.6729 256.42 24.5857 256.257 24.5393 256.083C24.4929 255.909 24.4885 255.727 24.5264 255.551C24.5125 255.379 24.5351 255.206 24.5929 255.043C24.6507 254.879 24.7425 254.728 24.8631 254.597C24.9837 254.467 25.1306 254.36 25.2955 254.283C25.4603 254.206 25.6399 254.16 25.8238 254.148C26.165 254.211 26.4697 254.388 26.6806 254.647C26.8914 254.905 26.9939 255.227 26.9687 255.551H27.0705ZM32.5912 257.596C32.4354 257.777 32.2275 257.913 31.9919 257.986C31.7563 258.06 31.503 258.069 31.2622 258.012C31.0213 257.955 30.8031 257.835 30.6332 257.665C30.4634 257.496 30.3492 257.284 30.3042 257.056C30.2592 256.827 30.2853 256.592 30.3794 256.377C30.4734 256.162 30.6315 255.977 30.8348 255.843C31.0382 255.71 31.2782 255.634 31.5264 255.624C31.7746 255.614 32.0205 255.672 32.235 255.789C32.5367 255.986 32.7432 256.286 32.8099 256.624C32.8765 256.963 32.798 257.312 32.5912 257.596ZM36.3056 261.949C36.0739 262.032 35.8217 262.051 35.5788 262.004C35.3358 261.957 35.1124 261.846 34.9349 261.684C34.7575 261.522 34.6334 261.316 34.5775 261.09C34.5215 260.864 34.536 260.628 34.6192 260.409C34.7025 260.191 34.851 259.999 35.0471 259.857C35.2432 259.715 35.4787 259.629 35.7258 259.608C35.9729 259.587 36.2211 259.633 36.4411 259.741C36.6611 259.848 36.8436 260.012 36.967 260.213C37.0417 260.373 37.0812 260.546 37.0831 260.721C37.085 260.896 37.0493 261.07 36.9781 261.232C36.907 261.394 36.8018 261.541 36.6687 261.664C36.5357 261.787 36.3776 261.884 36.2038 261.949H36.3056ZM37.196 267.443C36.9488 267.411 36.7167 267.313 36.5276 267.161C36.3385 267.009 36.2003 266.809 36.1297 266.585C36.0591 266.361 36.059 266.123 36.1295 265.899C36.1999 265.676 36.3379 265.475 36.527 265.323C36.716 265.171 36.948 265.073 37.1952 265.04C37.4424 265.008 37.6943 265.043 37.9206 265.142C38.147 265.24 38.3382 265.397 38.4714 265.595C38.6046 265.792 38.6741 266.021 38.6716 266.254C38.656 266.431 38.6022 266.602 38.5135 266.759C38.4248 266.916 38.303 267.054 38.1555 267.165C38.008 267.276 37.8379 267.358 37.6554 267.406C37.473 267.454 37.2821 267.467 37.0943 267.443H37.196ZM34.3466 270.869C34.5861 270.646 34.8978 270.504 35.2329 270.465C35.568 270.425 35.9075 270.491 36.1984 270.652C36.4892 270.812 36.715 271.058 36.8403 271.351C36.9655 271.644 36.9833 271.968 36.8907 272.272C36.7886 272.414 36.6571 272.536 36.504 272.63C36.3508 272.724 36.1791 272.788 35.999 272.819C35.8188 272.85 35.6338 272.847 35.4549 272.81C35.276 272.774 35.1068 272.704 34.9572 272.605C34.7878 272.535 34.6349 272.435 34.5073 272.31C34.3796 272.185 34.2798 272.037 34.2135 271.876C34.1473 271.714 34.116 271.542 34.1213 271.369C34.1267 271.196 34.1687 271.026 34.2448 270.869H34.3466ZM30.7085 274.27C30.9502 274.084 31.2472 273.972 31.5593 273.949C31.8714 273.926 32.1835 273.993 32.4532 274.142C32.723 274.29 32.9375 274.512 33.0675 274.779C33.1975 275.045 33.2368 275.342 33.1801 275.63C33.1234 275.918 32.9734 276.182 32.7505 276.388C32.5275 276.593 32.2423 276.73 31.9337 276.779C31.625 276.827 31.3078 276.786 31.0249 276.661C30.742 276.535 30.5072 276.332 30.3523 276.077C30.1348 275.804 30.0397 275.463 30.0872 275.125C30.1347 274.788 30.3211 274.481 30.6068 274.27H30.7085ZM24.4755 276.91C24.5097 276.679 24.6146 276.462 24.7774 276.285C24.9402 276.108 25.1542 275.979 25.3936 275.913C25.6329 275.847 25.8876 275.847 26.127 275.913C26.3664 275.979 26.5804 276.108 26.7434 276.284C26.9064 276.461 27.0114 276.678 27.0458 276.909C27.0802 277.14 27.0426 277.376 26.9375 277.587C26.8324 277.799 26.6642 277.978 26.4531 278.102C26.2421 278.227 25.9971 278.292 25.7475 278.289C25.5593 278.287 25.3737 278.248 25.2017 278.177C25.0297 278.105 24.875 278.002 24.7468 277.873C24.6185 277.744 24.5193 277.592 24.4552 277.427C24.3911 277.261 24.3634 277.086 24.3737 276.91H24.4755ZM18.9293 274.864C19.0939 274.557 19.379 274.322 19.725 274.206C20.0711 274.091 20.4514 274.105 20.7865 274.246C20.9386 274.341 21.0688 274.464 21.1693 274.608C21.2698 274.751 21.3387 274.911 21.3718 275.08C21.405 275.248 21.4019 275.421 21.3625 275.588C21.3232 275.756 21.2484 275.914 21.1427 276.054C21.0791 276.221 20.9769 276.374 20.8433 276.5C20.7097 276.626 20.5481 276.724 20.3697 276.786C20.1914 276.847 20.0008 276.871 19.8114 276.857C19.6219 276.842 19.4383 276.788 19.2735 276.699C19.1086 276.611 18.9666 276.49 18.8575 276.344C18.7484 276.198 18.6748 276.032 18.642 275.857C18.6091 275.682 18.6179 275.503 18.6675 275.331C18.7172 275.159 18.8066 275 18.9293 274.864ZM15.1386 270.488C15.443 270.295 15.8166 270.221 16.1785 270.283C16.5404 270.346 16.8614 270.539 17.0721 270.821C17.2225 271.134 17.2377 271.49 17.1145 271.813C16.9912 272.137 16.7391 272.403 16.4106 272.557C16.2655 272.672 16.0951 272.756 15.9116 272.802C15.7281 272.848 15.5359 272.857 15.3487 272.826C15.1614 272.795 14.9837 272.726 14.828 272.624C14.6723 272.522 14.5426 272.39 14.4478 272.236C14.3531 272.081 14.2957 271.91 14.2798 271.733C14.2639 271.556 14.2898 271.377 14.3557 271.211C14.4216 271.044 14.5259 270.893 14.6612 270.768C14.7965 270.643 14.9594 270.547 15.1386 270.488ZM12.7471 266.183C12.695 265.894 12.7389 265.598 12.8731 265.333C13.0072 265.069 13.225 264.85 13.4969 264.705C13.7689 264.56 14.0819 264.497 14.3936 264.524C14.7052 264.551 15.0004 264.667 15.2391 264.856C15.4779 265.045 15.6487 265.299 15.7284 265.582C15.8081 265.865 15.7928 266.164 15.6847 266.438C15.5765 266.713 15.3807 266.95 15.1238 267.117C14.8668 267.284 14.5611 267.373 14.2481 267.372C13.8849 267.399 13.5248 267.292 13.2445 267.074C12.9642 266.857 12.7857 266.545 12.7471 266.207V266.183Z" fill="#C6C6C6"/>
<path d="M49.1281 249.319H23.916V267.871H49.1281V249.319Z" fill="#3C3C3B"/>
<path d="M25.6696 273.437C29.927 273.437 33.3782 270.211 33.3782 266.23C33.3782 262.25 29.927 259.023 25.6696 259.023C21.4122 259.023 17.9609 262.25 17.9609 266.23C17.9609 270.211 21.4122 273.437 25.6696 273.437Z" fill="#3C3C3B"/>
<path d="M30.7838 266.23C30.7838 267.171 30.4854 268.091 29.9263 268.873C29.3672 269.656 28.5726 270.265 27.6428 270.625C26.7131 270.985 25.69 271.08 24.703 270.896C23.716 270.712 22.8093 270.259 22.0977 269.594C21.3861 268.929 20.9015 268.081 20.7052 267.158C20.5089 266.236 20.6096 265.279 20.9947 264.41C21.3799 263.541 22.032 262.798 22.8688 262.275C23.7055 261.752 24.6893 261.473 25.6956 261.473C27.0451 261.473 28.3393 261.975 29.2935 262.867C30.2478 263.759 30.7838 264.969 30.7838 266.23Z" fill="#1D1D1B"/>
<path d="M27.5036 266.23C27.5037 266.699 27.3061 267.15 26.9538 267.483C26.6014 267.817 26.1226 268.008 25.621 268.014C25.1149 268.014 24.6296 267.826 24.2718 267.492C23.9139 267.157 23.7129 266.704 23.7129 266.23C23.7129 265.757 23.9139 265.304 24.2718 264.969C24.6296 264.634 25.1149 264.447 25.621 264.447C26.1226 264.453 26.6014 264.643 26.9538 264.977C27.3061 265.311 27.5037 265.761 27.5036 266.23Z" fill="#575756"/>
<path d="M157.607 266.207C157.602 268.329 158.27 270.404 159.527 272.171C160.784 273.937 162.572 275.316 164.667 276.132C166.762 276.948 169.068 277.166 171.295 276.756C173.522 276.347 175.568 275.33 177.177 273.833C178.785 272.336 179.882 270.427 180.33 268.347C180.777 266.267 180.555 264.11 179.692 262.148C178.828 260.186 177.361 258.507 175.477 257.325C173.593 256.142 171.376 255.508 169.107 255.504C167.598 255.494 166.102 255.764 164.706 256.298C163.31 256.832 162.04 257.62 160.971 258.615C159.902 259.61 159.054 260.793 158.477 262.096C157.9 263.399 157.604 264.796 157.607 266.207Z" fill="#362A2B"/>
<path d="M144.354 266.183C144.339 270.757 145.775 275.233 148.482 279.044C151.189 282.855 155.044 285.829 159.56 287.591C164.076 289.352 169.049 289.821 173.85 288.939C178.652 288.057 183.065 285.863 186.532 282.635C189.999 279.407 192.364 275.29 193.327 270.805C194.29 266.32 193.809 261.669 191.943 257.44C190.078 253.211 186.912 249.594 182.847 247.048C178.782 244.501 174.001 243.14 169.108 243.135C162.558 243.129 156.273 245.552 151.632 249.873C146.992 254.194 144.374 260.059 144.354 266.183ZM153.869 266.183C153.869 263.36 154.764 260.601 156.441 258.254C158.118 255.907 160.502 254.078 163.292 252.998C166.081 251.918 169.15 251.635 172.111 252.186C175.072 252.737 177.792 254.096 179.927 256.092C182.062 258.087 183.516 260.63 184.105 263.399C184.694 266.167 184.391 269.036 183.236 271.644C182.081 274.252 180.124 276.481 177.614 278.049C175.104 279.617 172.152 280.454 169.133 280.454C165.089 280.454 161.21 278.954 158.348 276.282C155.487 273.611 153.875 269.987 153.869 266.207V266.183Z" fill="#1D1715"/>
<path d="M153.895 266.207C153.87 269.034 154.744 271.805 156.406 274.167C158.067 276.53 160.443 278.377 163.229 279.476C166.016 280.574 169.09 280.874 172.059 280.337C175.028 279.8 177.76 278.45 179.908 276.459C182.055 274.468 183.522 271.925 184.121 269.154C184.72 266.382 184.426 263.507 183.274 260.892C182.123 258.277 180.166 256.041 177.653 254.468C175.14 252.895 172.184 252.055 169.16 252.054C165.133 252.054 161.27 253.542 158.411 256.192C155.552 258.843 153.929 262.442 153.895 266.207ZM155.549 266.207C155.549 263.703 156.343 261.256 157.832 259.174C159.32 257.093 161.435 255.471 163.91 254.514C166.384 253.557 169.107 253.308 171.733 253.798C174.359 254.288 176.771 255.495 178.663 257.268C180.555 259.04 181.842 261.296 182.361 263.753C182.88 266.209 182.609 268.754 181.58 271.065C180.552 273.377 178.813 275.352 176.584 276.739C174.355 278.127 171.736 278.865 169.058 278.86C165.473 278.854 162.037 277.518 159.504 275.146C156.971 272.773 155.549 269.558 155.549 266.207Z" fill="#DADADA"/>
<path d="M159.795 266.206C159.79 267.929 160.332 269.615 161.352 271.049C162.372 272.484 163.824 273.604 165.525 274.266C167.226 274.929 169.099 275.104 170.907 274.771C172.715 274.438 174.377 273.611 175.682 272.394C176.986 271.178 177.876 269.627 178.237 267.937C178.598 266.248 178.415 264.496 177.711 262.904C177.007 261.312 175.814 259.951 174.282 258.994C172.75 258.036 170.949 257.525 169.106 257.525C167.885 257.522 166.675 257.744 165.545 258.179C164.415 258.614 163.389 259.253 162.524 260.059C161.659 260.866 160.972 261.824 160.504 262.879C160.036 263.934 159.795 265.064 159.795 266.206ZM163.255 266.206C163.26 265.125 163.608 264.068 164.255 263.171C164.902 262.274 165.82 261.577 166.891 261.167C167.962 260.757 169.139 260.654 170.273 260.87C171.407 261.085 172.447 261.611 173.262 262.379C174.077 263.147 174.629 264.124 174.85 265.186C175.071 266.248 174.95 267.348 174.503 268.346C174.055 269.344 173.301 270.195 172.336 270.792C171.371 271.389 170.238 271.706 169.081 271.701C168.31 271.701 167.547 271.559 166.836 271.282C166.124 271.006 165.478 270.601 164.934 270.09C164.391 269.58 163.96 268.974 163.668 268.307C163.375 267.641 163.226 266.927 163.23 266.206H163.255Z" fill="#EDEDED"/>
<path d="M163.231 266.207C163.225 267.29 163.564 268.35 164.204 269.252C164.844 270.155 165.756 270.86 166.825 271.278C167.894 271.695 169.071 271.807 170.208 271.599C171.345 271.39 172.39 270.871 173.21 270.107C174.031 269.343 174.591 268.368 174.819 267.306C175.047 266.245 174.932 265.143 174.49 264.142C174.048 263.141 173.298 262.286 172.335 261.683C171.373 261.081 170.24 260.76 169.082 260.76C167.536 260.766 166.056 261.341 164.961 262.361C163.865 263.38 163.244 264.762 163.231 266.207ZM166.843 264.137C166.765 264.211 166.672 264.27 166.569 264.31C166.467 264.35 166.357 264.371 166.245 264.371C166.134 264.371 166.024 264.35 165.921 264.31C165.819 264.27 165.725 264.211 165.647 264.137C165.493 263.987 165.408 263.787 165.408 263.578C165.408 263.37 165.493 263.17 165.647 263.019C165.811 262.881 166.024 262.804 166.245 262.804C166.466 262.804 166.679 262.881 166.843 263.019C166.922 263.092 166.985 263.179 167.028 263.275C167.071 263.371 167.093 263.474 167.093 263.578C167.093 263.682 167.071 263.785 167.028 263.881C166.985 263.977 166.922 264.064 166.843 264.137ZM169.565 262.877C169.559 262.995 169.506 263.106 169.417 263.19C169.328 263.273 169.208 263.323 169.082 263.329C168.954 263.329 168.831 263.281 168.74 263.196C168.65 263.111 168.599 262.996 168.599 262.877C168.595 262.816 168.605 262.756 168.628 262.7C168.651 262.643 168.686 262.592 168.732 262.549C168.778 262.507 168.832 262.474 168.893 262.452C168.953 262.431 169.017 262.421 169.082 262.425C169.21 262.425 169.333 262.472 169.424 262.557C169.514 262.642 169.565 262.757 169.565 262.877ZM172.491 264.137C172.42 264.231 172.329 264.308 172.223 264.365C172.117 264.422 171.999 264.456 171.877 264.466C171.755 264.476 171.632 264.46 171.518 264.421C171.403 264.382 171.299 264.32 171.212 264.239C171.126 264.158 171.059 264.061 171.017 263.953C170.975 263.846 170.959 263.731 170.969 263.617C170.98 263.504 171.016 263.393 171.077 263.294C171.138 263.195 171.221 263.109 171.321 263.043C171.482 262.936 171.679 262.886 171.877 262.902C172.074 262.917 172.259 262.998 172.399 263.129C172.54 263.26 172.626 263.433 172.642 263.617C172.659 263.802 172.605 263.986 172.491 264.137ZM172.669 266.682C172.541 266.682 172.418 266.635 172.327 266.55C172.237 266.465 172.186 266.35 172.186 266.23C172.186 266.11 172.237 265.996 172.327 265.911C172.418 265.826 172.541 265.778 172.669 265.778C172.797 265.778 172.92 265.826 173.011 265.911C173.102 265.996 173.153 266.11 173.153 266.23C173.153 266.35 173.102 266.465 173.011 266.55C172.92 266.635 172.797 266.682 172.669 266.682ZM171.295 268.323C171.373 268.249 171.467 268.191 171.569 268.15C171.672 268.11 171.782 268.09 171.893 268.09C172.004 268.09 172.115 268.11 172.217 268.15C172.32 268.191 172.413 268.249 172.491 268.323C172.638 268.473 172.719 268.668 172.719 268.87C172.719 269.073 172.638 269.268 172.491 269.418C172.413 269.492 172.32 269.55 172.217 269.591C172.115 269.631 172.004 269.651 171.893 269.651C171.782 269.651 171.672 269.631 171.569 269.591C171.467 269.55 171.373 269.492 171.295 269.418C171.217 269.347 171.154 269.262 171.112 269.168C171.069 269.074 171.047 268.973 171.047 268.87C171.047 268.768 171.069 268.667 171.112 268.573C171.154 268.479 171.217 268.394 171.295 268.323ZM168.573 269.584C168.573 269.464 168.624 269.349 168.715 269.264C168.805 269.18 168.928 269.132 169.057 269.132C169.185 269.132 169.308 269.18 169.398 269.264C169.489 269.349 169.54 269.464 169.54 269.584C169.54 269.704 169.489 269.819 169.398 269.904C169.308 269.988 169.185 270.036 169.057 270.036C168.928 270.036 168.805 269.988 168.715 269.904C168.624 269.819 168.573 269.704 168.573 269.584ZM166.843 266.23C166.838 265.814 166.966 265.406 167.21 265.059C167.454 264.711 167.803 264.439 168.213 264.277C168.623 264.116 169.076 264.073 169.512 264.153C169.949 264.233 170.35 264.432 170.665 264.727C170.979 265.021 171.193 265.396 171.279 265.804C171.364 266.212 171.318 266.635 171.145 267.019C170.973 267.402 170.682 267.729 170.31 267.957C169.938 268.185 169.501 268.304 169.057 268.3C168.47 268.3 167.906 268.082 167.491 267.694C167.076 267.305 166.843 266.779 166.843 266.23ZM165.647 268.323C165.764 268.211 165.913 268.134 166.077 268.102C166.24 268.07 166.41 268.084 166.565 268.143C166.72 268.202 166.853 268.303 166.946 268.432C167.039 268.562 167.089 268.714 167.089 268.87C167.089 269.027 167.039 269.179 166.946 269.309C166.853 269.438 166.72 269.539 166.565 269.598C166.41 269.657 166.24 269.671 166.077 269.639C165.913 269.607 165.764 269.53 165.647 269.418C165.569 269.347 165.507 269.262 165.464 269.168C165.421 269.074 165.399 268.973 165.399 268.87C165.399 268.768 165.421 268.667 165.464 268.573C165.507 268.479 165.569 268.394 165.647 268.323ZM164.986 266.23C164.982 266.17 164.992 266.11 165.015 266.053C165.038 265.997 165.074 265.946 165.119 265.903C165.165 265.86 165.22 265.827 165.28 265.806C165.34 265.784 165.405 265.775 165.469 265.778C165.6 265.778 165.726 265.825 165.82 265.909C165.915 265.993 165.972 266.108 165.978 266.23C165.966 266.35 165.908 266.462 165.814 266.545C165.721 266.628 165.598 266.677 165.469 266.682C165.399 266.692 165.326 266.688 165.257 266.671C165.188 266.653 165.124 266.621 165.069 266.579C165.013 266.536 164.968 266.483 164.937 266.423C164.905 266.363 164.887 266.297 164.884 266.23H164.986Z" fill="#C6C6C6"/>
<path d="M155.547 266.207C155.542 268.71 156.331 271.159 157.816 273.243C159.3 275.327 161.412 276.953 163.884 277.914C166.357 278.875 169.079 279.129 171.706 278.644C174.334 278.158 176.748 276.955 178.643 275.186C180.538 273.418 181.83 271.163 182.354 268.708C182.879 266.253 182.612 263.707 181.588 261.394C180.565 259.08 178.83 257.102 176.604 255.711C174.377 254.319 171.76 253.577 169.082 253.577C167.304 253.57 165.544 253.893 163.9 254.525C162.257 255.157 160.763 256.087 159.505 257.261C158.247 258.434 157.25 259.829 156.571 261.364C155.892 262.899 155.544 264.545 155.547 266.207ZM160.482 261.569C160.38 261.711 160.249 261.832 160.096 261.926C159.943 262.02 159.771 262.085 159.591 262.116C159.411 262.147 159.226 262.144 159.047 262.107C158.868 262.07 158.699 262 158.549 261.902C158.355 261.756 158.211 261.561 158.132 261.341C158.053 261.121 158.044 260.884 158.104 260.659C158.165 260.434 158.294 260.23 158.475 260.071C158.657 259.912 158.883 259.806 159.127 259.763C159.372 259.721 159.624 259.746 159.854 259.834C160.084 259.922 160.282 260.069 160.424 260.26C160.567 260.45 160.648 260.674 160.659 260.906C160.669 261.138 160.608 261.368 160.482 261.569ZM169.082 257.525C170.925 257.52 172.729 258.028 174.264 258.982C175.799 259.937 176.997 261.296 177.705 262.888C178.413 264.48 178.599 266.232 178.241 267.923C177.882 269.614 176.995 271.167 175.691 272.386C174.387 273.605 172.726 274.434 170.917 274.77C169.109 275.105 167.234 274.93 165.532 274.269C163.829 273.607 162.375 272.487 161.354 271.052C160.333 269.617 159.791 267.93 159.796 266.207C159.809 263.908 160.792 261.707 162.53 260.082C164.269 258.456 166.623 257.538 169.082 257.525ZM164.121 258.191C163.785 258.332 163.405 258.346 163.059 258.231C162.713 258.115 162.428 257.88 162.263 257.573C162.175 257.356 162.154 257.12 162.204 256.893C162.255 256.666 162.374 256.457 162.547 256.291C162.72 256.125 162.941 256.009 163.182 255.957C163.424 255.905 163.677 255.918 163.91 255.996C164.144 256.074 164.349 256.213 164.501 256.396C164.653 256.579 164.745 256.8 164.767 257.031C164.789 257.262 164.74 257.494 164.626 257.699C164.511 257.905 164.336 258.076 164.121 258.191ZM170.354 255.551C170.315 255.78 170.206 255.994 170.041 256.168C169.876 256.341 169.661 256.466 169.422 256.529C169.183 256.591 168.929 256.588 168.692 256.52C168.454 256.452 168.243 256.322 168.082 256.145C167.922 255.968 167.819 255.751 167.786 255.521C167.753 255.291 167.792 255.057 167.897 254.847C168.002 254.636 168.17 254.459 168.38 254.335C168.59 254.211 168.833 254.146 169.082 254.148C169.448 254.178 169.788 254.342 170.026 254.605C170.264 254.868 170.382 255.208 170.354 255.551ZM175.9 257.596C175.744 257.777 175.536 257.913 175.3 257.986C175.065 258.06 174.812 258.069 174.571 258.012C174.33 257.955 174.112 257.835 173.942 257.665C173.772 257.496 173.658 257.284 173.613 257.056C173.568 256.827 173.594 256.592 173.688 256.377C173.782 256.162 173.94 255.977 174.143 255.843C174.347 255.71 174.587 255.634 174.835 255.624C175.083 255.614 175.329 255.672 175.544 255.789C175.845 255.986 176.052 256.286 176.118 256.624C176.185 256.963 176.107 257.312 175.9 257.596ZM179.614 261.949C179.307 262.14 178.931 262.21 178.569 262.143C178.207 262.076 177.887 261.878 177.681 261.592C177.524 261.28 177.505 260.922 177.629 260.597C177.753 260.272 178.009 260.005 178.342 259.856C178.492 259.762 178.661 259.697 178.838 259.664C179.016 259.631 179.198 259.631 179.375 259.664C179.553 259.697 179.721 259.763 179.871 259.857C180.021 259.951 180.15 260.072 180.25 260.213C180.409 260.522 180.432 260.878 180.313 261.203C180.194 261.528 179.943 261.796 179.614 261.949ZM180.479 267.443C180.234 267.407 180.005 267.306 179.82 267.151C179.634 266.997 179.5 266.796 179.433 266.572C179.366 266.349 179.369 266.112 179.442 265.89C179.515 265.668 179.654 265.47 179.844 265.32C180.033 265.17 180.265 265.074 180.511 265.043C180.757 265.012 181.008 265.048 181.232 265.147C181.457 265.245 181.647 265.402 181.78 265.598C181.913 265.794 181.982 266.022 181.98 266.254C181.948 266.597 181.772 266.914 181.491 267.137C181.21 267.36 180.846 267.47 180.479 267.443ZM177.604 270.869C177.844 270.646 178.156 270.504 178.491 270.465C178.826 270.425 179.165 270.491 179.456 270.652C179.747 270.812 179.973 271.058 180.098 271.351C180.223 271.644 180.241 271.968 180.148 272.272C180.046 272.414 179.915 272.536 179.762 272.63C179.609 272.724 179.437 272.788 179.257 272.819C179.077 272.85 178.892 272.847 178.713 272.81C178.534 272.774 178.365 272.704 178.215 272.605C177.891 272.447 177.646 272.177 177.532 271.853C177.417 271.528 177.444 271.175 177.604 270.869ZM173.966 274.27C174.208 274.084 174.505 273.972 174.817 273.949C175.129 273.926 175.441 273.993 175.711 274.142C175.981 274.29 176.195 274.512 176.325 274.779C176.455 275.045 176.495 275.342 176.438 275.63C176.381 275.918 176.231 276.182 176.008 276.388C175.785 276.593 175.5 276.73 175.191 276.779C174.883 276.827 174.565 276.786 174.283 276.661C174 276.535 173.765 276.332 173.61 276.077C173.408 275.787 173.338 275.434 173.414 275.095C173.49 274.756 173.707 274.459 174.017 274.27H173.966ZM167.708 276.91C167.686 276.564 167.81 276.224 168.052 275.962C168.295 275.7 168.636 275.537 169.005 275.507C169.307 275.468 169.615 275.516 169.887 275.645C170.159 275.774 170.383 275.977 170.528 276.228C170.674 276.479 170.734 276.765 170.701 277.048C170.668 277.332 170.544 277.599 170.344 277.815C170.145 278.03 169.88 278.184 169.585 278.256C169.289 278.327 168.978 278.313 168.692 278.214C168.405 278.116 168.158 277.939 167.982 277.706C167.806 277.473 167.711 277.195 167.708 276.91ZM162.187 274.864C162.352 274.557 162.637 274.322 162.983 274.206C163.329 274.091 163.709 274.105 164.044 274.246C164.337 274.349 164.589 274.534 164.766 274.775C164.943 275.016 165.036 275.302 165.033 275.594C165.03 275.887 164.932 276.171 164.75 276.409C164.569 276.648 164.314 276.828 164.019 276.926C163.724 277.024 163.405 277.035 163.103 276.958C162.801 276.881 162.532 276.718 162.332 276.494C162.133 276.269 162.012 275.992 161.986 275.7C161.959 275.409 162.03 275.117 162.187 274.864ZM158.524 270.488C158.828 270.295 159.201 270.221 159.563 270.283C159.925 270.346 160.246 270.539 160.457 270.821C160.538 270.975 160.586 271.143 160.596 271.315C160.607 271.486 160.581 271.658 160.519 271.82C160.457 271.982 160.362 272.13 160.237 272.257C160.113 272.384 159.963 272.486 159.796 272.557C159.491 272.751 159.118 272.824 158.756 272.762C158.394 272.699 158.073 272.506 157.862 272.224C157.712 271.911 157.696 271.555 157.82 271.232C157.943 270.908 158.195 270.642 158.524 270.488ZM156.158 266.183C156.111 265.9 156.158 265.611 156.292 265.354C156.426 265.097 156.641 264.884 156.908 264.744C157.175 264.605 157.481 264.545 157.785 264.572C158.09 264.6 158.378 264.713 158.611 264.898C158.845 265.083 159.012 265.33 159.091 265.607C159.17 265.883 159.157 266.175 159.053 266.444C158.95 266.713 158.76 266.946 158.511 267.112C158.262 267.278 157.964 267.369 157.659 267.372C157.295 267.399 156.935 267.292 156.655 267.074C156.375 266.857 156.196 266.545 156.158 266.207V266.183Z" fill="#C6C6C6"/>
<path d="M156.761 234.081L151.119 236.502L166.282 267.394L171.924 264.973L156.761 234.081Z" fill="#1D1715"/>
<path d="M142.648 262.235C142.869 262.53 143.158 262.775 143.494 262.951C143.831 263.126 144.205 263.228 144.59 263.249C144.975 263.27 145.359 263.208 145.715 263.07C146.07 262.931 146.388 262.719 146.643 262.449C157.175 252.364 170.99 247.083 187.603 245.942C188.076 245.921 188.533 245.777 188.923 245.526C189.314 245.275 189.621 244.927 189.812 244.522C190.002 244.117 190.068 243.67 190.001 243.231C189.934 242.793 189.738 242.381 189.435 242.041C181.802 233.502 170.176 229.173 155.14 228.579L142.648 262.235Z" fill="#EA4A49"/>
<path opacity="0.75" d="M181.802 243.016C182.074 242.974 182.329 242.862 182.538 242.694C182.747 242.525 182.902 242.305 182.986 242.06C183.07 241.814 183.08 241.551 183.015 241.3C182.949 241.049 182.811 240.82 182.616 240.638C176.459 235.881 168.241 233.05 157.734 232.265L156.793 234.644C165.453 234.856 173.811 237.666 180.631 242.659C180.784 242.798 180.969 242.903 181.172 242.965C181.375 243.026 181.59 243.044 181.802 243.016Z" fill="white"/>
<path d="M126.164 173.802C126.027 173.802 125.893 173.76 125.783 173.683C125.673 173.605 125.592 173.497 125.554 173.373L119.092 149.993C119.053 149.841 119.079 149.682 119.165 149.549C119.25 149.415 119.389 149.318 119.55 149.279C119.705 149.243 119.869 149.265 120.007 149.34C120.145 149.416 120.246 149.539 120.287 149.683L126.724 172.969C126.747 173.042 126.754 173.119 126.745 173.195C126.735 173.271 126.71 173.345 126.669 173.411C126.629 173.478 126.575 173.536 126.51 173.583C126.445 173.63 126.371 173.663 126.291 173.683L126.164 173.802Z" fill="#706F6F"/>
<path d="M115.25 150.421C115.25 154.535 116.827 157.865 118.837 157.865C120.847 157.865 122.45 154.535 122.475 150.421C122.501 146.306 120.898 142.976 118.888 142.976C116.878 142.976 115.275 146.306 115.25 150.421Z" fill="#706F6F"/>
<path d="M114.611 150.421C114.611 154.535 116.189 157.865 118.173 157.865C120.157 157.865 121.811 154.535 121.837 150.421C121.862 146.306 120.259 142.976 118.249 142.976C116.24 142.976 114.611 146.306 114.611 150.421Z" fill="#9D9D9C"/>
<path d="M118.174 157.271C117.775 157.24 117.403 157.07 117.131 156.795C115.727 154.94 115.053 152.688 115.223 150.421C115.223 146.377 116.826 143.571 118.251 143.571C118.659 143.596 119.041 143.766 119.319 144.046C120.723 145.902 121.397 148.154 121.227 150.421C121.202 154.464 119.599 157.271 118.174 157.271Z" fill="#DADADA"/>
<path d="M137.586 185.884C139.103 185.884 140.333 183.116 140.333 179.7C140.333 176.285 139.103 173.516 137.586 173.516C136.068 173.516 134.838 176.285 134.838 179.7C134.838 183.116 136.068 185.884 137.586 185.884Z" fill="#F9B233"/>
<path d="M42.6655 218.66H10.4316V234.596H42.6655V218.66Z" fill="#EA4A49"/>
<path d="M10.4306 234.002L7.02148 233.288V219.397L10.4306 218.66V234.002Z" fill="#C6C6C6"/>
<path d="M158.55 213.903L132.6 180.461L124.179 183.934L135.169 213.19C138.866 223.062 138.365 233.884 133.77 243.421L128.682 254.124C128.191 255.139 127.397 256.001 126.395 256.604C125.393 257.208 124.226 257.528 123.034 257.525H92.0974C79.3768 257.525 79.1479 233.574 92.0974 217.852L31.4967 213.404L10.5078 233.597L12.136 255.599L45.0059 269.465H128.402C131.222 269.467 133.998 268.816 136.484 267.571C138.97 266.326 141.088 264.525 142.649 262.33L159.084 239.234C161.781 235.469 163.176 231.021 163.08 226.49C162.984 221.96 161.403 217.566 158.55 213.903Z" fill="#C21E1D"/>
<path d="M134.354 256.502L139.442 245.799C144.706 234.907 145.271 222.535 141.02 211.263L133.616 191.569L132.65 180.461L124.178 183.934L135.168 213.19C138.865 223.062 138.364 233.884 133.769 243.421L128.681 254.124C128.19 255.14 127.396 256.001 126.394 256.604C125.392 257.208 124.225 257.528 123.033 257.525H92.0966C79.3761 257.525 79.1471 233.574 92.0966 217.852L28.7992 215.901L25.6699 218.922L81.6403 222.87C75.8906 234.049 74.5168 246.941 78.8672 255.218C79.8533 257.273 81.3643 259.07 83.2674 260.451C85.1705 261.832 87.4074 262.755 89.7814 263.138H125.094C127.102 262.83 128.998 262.064 130.614 260.906C132.229 259.748 133.514 258.236 134.354 256.502Z" fill="#A31918"/>
<path d="M3.58726 250.508L51.9253 260.284C53.7792 260.661 55.6967 260.673 57.5557 260.319C59.4148 259.965 61.1746 259.253 62.7231 258.228C64.2716 257.203 65.5749 255.888 66.5498 254.367C67.5247 252.845 68.15 251.15 68.3857 249.39L69.8867 238.045C70.1519 236.05 69.9096 234.024 69.1796 232.133C68.4496 230.243 67.2525 228.539 65.6856 227.163C64.1187 225.786 62.2264 224.774 60.1625 224.21C58.0985 223.646 55.9213 223.545 53.8079 223.916L12.7206 231.171C9.14522 231.774 5.91109 233.535 3.5852 236.144C1.25931 238.754 -0.00991242 242.045 5.8301e-05 245.442V246.441C0.0179959 247.398 0.382455 248.321 1.03395 249.06C1.68545 249.799 2.58552 250.309 3.58726 250.508Z" fill="#EA4A49"/>
<path opacity="0.75" d="M11.0415 237.189L56.403 230.053C57.0916 229.939 57.7898 229.883 58.4891 229.887C60.6138 229.891 62.6976 230.434 64.5187 231.457C64.2613 231.1 63.9809 230.759 63.6791 230.434C62.7588 229.442 61.6217 228.647 60.3445 228.101C59.0674 227.556 57.68 227.272 56.2758 227.271C55.6444 227.278 55.0148 227.333 54.3932 227.437L13.3058 234.573C10.2884 235.103 7.61291 236.717 5.85156 239.068C7.42532 238.115 9.19195 237.476 11.0415 237.189Z" fill="white"/>
<path d="M99.602 204.674H25.4412C24.0159 204.671 22.6415 205.169 21.5913 206.07C20.5412 206.971 19.8922 208.209 19.7736 209.537C19.655 210.865 20.0753 212.186 20.9511 213.237C21.8268 214.289 23.0938 214.993 24.4999 215.211L40.8585 217.851H99.602V204.674Z" fill="#16191E"/>
<path d="M121.227 171.47L122.27 178.059C122.274 179.635 122.666 181.189 123.414 182.602L125.145 186.645H137.407L138.425 184.671L137.789 173.445L134.583 172.255L121.227 171.47Z" fill="#16191E"/>
<path d="M139.087 185.67L137.408 186.645L134.584 172.255L144.608 173.73L138.426 175.371L139.087 185.67Z" fill="#9D9D9C"/>
<path d="M112.755 157.865C114.75 157.865 116.368 154.532 116.368 150.421C116.368 146.309 114.75 142.976 112.755 142.976C110.76 142.976 109.143 146.309 109.143 150.421C109.143 154.532 110.76 157.865 112.755 157.865Z" fill="#706F6F"/>
<path d="M113.415 157.865C115.411 157.865 117.028 154.532 117.028 150.421C117.028 146.309 115.411 142.976 113.415 142.976C111.42 142.976 109.803 146.309 109.803 150.421C109.803 154.532 111.42 157.865 113.415 157.865Z" fill="#9D9D9C"/>
<path d="M125.781 173.802C125.663 173.802 125.548 173.771 125.449 173.712C125.349 173.653 125.27 173.569 125.221 173.469L113.722 150.088C113.652 149.946 113.645 149.784 113.702 149.637C113.759 149.49 113.876 149.37 114.027 149.303C114.176 149.245 114.343 149.242 114.495 149.295C114.646 149.348 114.77 149.453 114.841 149.588L126.341 172.969C126.41 173.111 126.417 173.273 126.36 173.42C126.303 173.567 126.186 173.687 126.035 173.754L125.781 173.802Z" fill="#706F6F"/>
<path d="M123.314 257.311C120.32 258.785 117.004 259.599 113.621 259.69H100.341H98.5601H97.9241C97.5813 259.684 97.2402 259.644 96.9064 259.571L95.0493 259.238C94.9753 259.224 94.9053 259.195 94.8439 259.154C94.7825 259.113 94.7311 259.061 94.6931 259C94.6752 258.921 94.6752 258.84 94.6931 258.762C94.6794 258.651 94.6794 258.54 94.6931 258.429C94.6931 257.858 94.6931 257.002 94.6931 256.05C94.6931 255.765 94.6931 255.456 94.6931 255.147C94.6805 254.925 94.6805 254.702 94.6931 254.481C94.8457 252.839 95.0238 251.293 95.1256 250.937C95.2273 250.58 95.6089 249.938 95.9397 248.962C96.1862 248.24 96.298 247.484 96.2704 246.727C96.2704 246.727 96.2704 246.489 96.2704 246.346L99.0181 246.18L102.224 245.966H102.529L105.963 245.751C106.131 246.176 106.362 246.577 106.65 246.941C107.72 248.124 109.047 249.081 110.543 249.747L111.077 249.961C112.197 250.342 113.977 250.532 115.758 250.984L117.005 251.293C118.859 251.507 120.639 252.1 122.22 253.03C123.213 253.648 123.162 254.98 123.442 256.597C123.499 256.715 123.518 256.845 123.496 256.973C123.473 257.1 123.41 257.218 123.314 257.311Z" fill="#16191E"/>
<path d="M115.044 201.511C115.052 201.582 115.052 201.654 115.044 201.725L114.077 210.478C113.11 219.992 111.533 238.616 111.049 250.651L104.46 252.483L100.186 253.648L94.6654 255.194C92.3248 242.422 93.6732 218.541 95.1742 209.527C95.1742 209.122 95.1742 208.742 95.3523 208.361C95.5558 207.243 95.7339 206.173 95.9374 205.245C95.9374 204.936 95.9374 204.627 96.1155 204.342C96.7261 201.345 97.2095 199.585 97.2604 199.299C97.5502 198.097 98.1336 196.973 98.9649 196.017C99.481 195.415 100.08 194.879 100.746 194.423C102.065 193.528 103.624 192.993 105.249 192.877C105.765 192.83 106.285 192.83 106.801 192.877H106.979C108.693 193.02 110.326 193.624 111.68 194.616C113.035 195.608 114.053 196.945 114.611 198.467C114.665 198.598 114.708 198.733 114.738 198.871C114.998 199.729 115.102 200.621 115.044 201.511Z" fill="#5589B9"/>
<path d="M115.3 199.133C115.361 200.013 115.266 200.897 115.02 201.749C114.325 204.026 112.722 205.967 110.543 207.172C108.462 208.366 106.031 208.915 103.597 208.742L99.323 208.552H96.7789H95.4305L90.3423 208.361C88.2053 208.242 85.9156 208.171 83.6514 208.076H83.2443C81.4889 208.076 79.7589 208.076 78.1561 207.862H77.6727C72.5845 207.648 67.9796 207.458 65.3083 207.315C63.8836 207.315 62.9932 207.315 62.8914 207.172C60.95 207.004 59.0599 206.496 57.3198 205.674C56.8652 205.446 56.4312 205.183 56.0223 204.889C54.4262 203.777 53.2214 202.245 52.5624 200.489C51.6451 197.891 51.4095 195.126 51.8754 192.425C52.1256 190.683 52.5341 188.965 53.0966 187.288C53.5457 185.617 54.2482 184.015 55.1828 182.531H55.3354L65.1048 185.575L71.3378 187.502C71.6511 187.477 71.966 187.477 72.2792 187.502L82.4556 188.287L85.2541 188.477L91.1819 188.929L100.9 189.666C102.964 189.623 105.025 189.83 107.032 190.285C109.397 190.816 111.519 192.041 113.087 193.781C113.42 194.136 113.718 194.518 113.977 194.923C114.166 195.206 114.336 195.5 114.486 195.803C114.876 196.556 115.15 197.357 115.3 198.181V198.657C115.275 198.8 115.3 198.942 115.3 199.133Z" fill="#5589B9"/>
<g style="mix-blend-mode:multiply" opacity="0.3">
<path d="M99.3213 208.647C99.3213 207.339 99.4994 206.03 99.6012 204.77L96.0648 204.437L69.5807 202.058C65.0888 202.026 60.6912 200.85 56.8601 198.657C54.604 197.008 52.8496 194.835 51.7719 192.354C51.3059 195.054 51.5415 197.82 52.4588 200.417C53.0962 202.158 54.2853 203.676 55.8679 204.77C56.2994 205.072 56.7497 205.35 57.2163 205.602C58.9563 206.425 60.8465 206.933 62.7879 207.101L65.2048 207.267L77.5692 207.791H78.0526L83.1408 207.981H83.5733L90.2897 208.266L95.3779 208.457C95.3779 208.837 95.378 209.218 95.1999 209.622C93.6988 218.637 92.3505 242.517 94.6911 255.266L100.237 253.743L104.486 252.554C99.5503 239.567 98.5326 222.323 99.3213 208.647Z" fill="#456F96"/>
</g>
<path d="M74.4932 135.936C76.4274 136.813 78.6039 137.112 80.7263 136.792L82.8125 120.927C81.744 120.927 75.7907 119.262 71.3894 118.025L68.6164 128.324L68.2093 129.775C68.2093 129.775 68.0821 129.775 68.0566 129.775C66.9881 130.703 71.7965 134.913 74.4932 135.936Z" fill="#FFAE80"/>
<path d="M88.5595 112.103C88.803 112.882 88.9816 113.677 89.0938 114.482C88.9784 114.98 88.834 115.472 88.6613 115.956L89.0175 116.527L90.6457 119.167C90.737 119.329 90.7897 119.507 90.8 119.69C90.8103 119.872 90.778 120.054 90.7054 120.224C90.6328 120.394 90.5216 120.547 90.3795 120.672C90.2374 120.798 90.0678 120.893 89.8825 120.951H89.6026L88.7122 121.284C88.7122 121.284 88.7122 121.474 88.7122 121.593L89.0429 123.496C89.221 124.376 89.3991 125.304 89.5008 125.875C89.6026 126.445 89.5008 126.445 89.5008 126.445C89.6074 127.522 89.4054 128.606 88.9157 129.585C88.6954 130.102 88.3274 130.554 87.8519 130.889C87.3764 131.225 86.8116 131.432 86.219 131.488L83.4967 131.702H83.166C80.9731 131.442 78.9305 130.521 77.3469 129.079C75.7633 127.637 74.7249 125.753 74.3888 123.71C74.3748 123.592 74.3748 123.472 74.3888 123.353H74.2108H73.473C71.5395 123.805 69.1989 125.328 68.8427 123.734C68.3848 121.736 65.6625 118.977 65.1283 116.384C64.6195 110.486 66.2986 107.489 68.7155 105.895L69.1989 105.61C71.5287 104.536 74.0816 103.951 76.6786 103.897C78.628 103.713 80.5942 104.03 82.3651 104.814C84.1361 105.598 85.6445 106.819 86.7278 108.345C87.5323 109.507 88.1495 110.773 88.5595 112.103Z" fill="#FFAE80"/>
<path d="M69.5553 126.564C78.2816 127.397 72.3793 118.787 72.3793 118.787C72.3793 118.787 74.4146 118.596 75.2033 119.31C76.2718 119.31 76.9333 119.31 77.7474 119.191C77.035 109.106 74.6435 107.417 86.7535 108.488C88.7888 106.109 87.8984 101.566 75.2796 102.756C68.9448 103.326 63.8566 107.346 64.0092 113.292C64.1873 116.765 64.0601 118.715 69.5553 126.564Z" fill="#16191E"/>
<path d="M71.03 119.714C71.259 121.569 73.1925 123.52 74.49 123.377C75.7875 123.234 75.4568 121.76 75.2532 119.904C75.1006 118.668 75.2532 116.908 73.7522 116.67C72.2511 116.432 70.7501 117.003 71.03 119.714Z" fill="#FFAE80"/>
<path d="M86.2695 169.425C85.7576 175.811 84.4425 182.117 82.3516 188.215C82.3516 188.215 82.3516 188.215 82.3516 188.358C77.0719 189.73 71.5956 190.324 66.1202 190.118C64.1865 190.022 62.2639 189.784 60.3705 189.404C57.833 188.869 55.367 188.071 53.018 187.026C53.018 185.813 53.018 185.67 52.7891 184.219L53.018 182.031C55.206 159.959 51.5679 135.365 68.2827 129.704C70.3567 131.743 72.7294 133.496 75.3299 134.913C76.9531 135.917 78.7806 136.597 80.6979 136.911C81.1404 137.516 81.548 138.144 81.9191 138.79C84.4174 142.968 85.927 147.6 86.3459 152.371C86.8477 158.047 86.8222 163.753 86.2695 169.425Z" fill="#EA4A49"/>
<g style="mix-blend-mode:multiply" opacity="0.5">
<path d="M100.798 189.619C91.563 193.377 79.5039 192.853 66.071 190.142L72.1514 187.454L78.7407 184.552C76.7308 173.801 70.3706 160.767 62.7637 147.257L86.2712 169.449C85.7593 175.834 84.4442 182.141 82.3533 188.239L85.1518 188.429L91.0796 188.881L100.798 189.619Z" fill="#EA4A49"/>
</g>
<path d="M89.1461 131.107C87.9759 132.511 85.6607 132.463 83.7526 132.344C81.952 132.343 80.1729 131.978 78.5372 131.274C77.3073 130.609 76.2716 129.67 75.5218 128.542C74.7719 127.414 74.3308 126.13 74.2377 124.804C74.0779 122.15 74.7594 119.511 76.1966 117.217C77.1125 118.596 79.0206 119.048 80.3181 120.119C81.5419 121.32 82.4175 122.794 82.8622 124.4C83.1166 125.066 83.1421 125.708 83.8799 125.851C84.0423 125.867 84.2067 125.853 84.3631 125.809C84.5196 125.765 84.665 125.692 84.7908 125.594C84.9165 125.497 85.02 125.376 85.0952 125.241C85.1703 125.105 85.2156 124.957 85.2282 124.804C85.2498 123.919 85.6201 123.073 86.268 122.428C86.916 121.783 87.7959 121.384 88.7391 121.308C89.1462 121.332 90.927 128.99 89.1461 131.107Z" fill="#16191E"/>
<path d="M113.213 167.356C113.213 167.356 112.424 172.565 112.398 172.517C112.373 172.47 84.4133 172.018 83.8281 171.875C81.284 171.281 80.9533 170.591 79.4014 168.807C78.3837 167.641 87.0337 162.575 88.4075 160.553C92.6562 160.91 113.213 167.356 113.213 167.356Z" fill="#FFAE80"/>
<path d="M88.41 160.553L72.5093 140.264C71.4722 138.914 69.9064 138.001 68.1529 137.725C66.3994 137.449 64.6002 137.832 63.147 138.79C62.4234 139.257 61.8053 139.852 61.328 140.542C60.8507 141.232 60.5235 142.004 60.3652 142.812C60.2069 143.621 60.2206 144.45 60.4054 145.254C60.5903 146.057 60.9426 146.819 61.4425 147.495L62.1803 148.494L79.5056 168.735L88.41 160.553Z" fill="#C21E1D"/>
<path d="M123.975 168.212C124.744 168.712 125.359 169.393 125.756 170.186C126.672 171.809 127.332 173.548 127.715 175.347C128.275 177.583 122.398 178.273 122.016 177.988C121.82 177.851 121.673 177.661 121.596 177.445C121.519 177.228 121.514 176.994 121.584 176.775C121.94 175.776 123.848 175.847 124.128 174.8C124.157 174.44 124.038 174.083 123.797 173.801C123.288 172.969 122.398 172.16 121.406 172.351C120.747 172.576 120.155 172.942 119.675 173.421C118.799 173.899 117.803 174.152 116.788 174.152C115.773 174.152 114.777 173.899 113.9 173.421C112.399 172.493 108.99 169.782 109.448 168.164C109.677 167.427 114.028 167.736 114.816 167.712C117.879 167.458 120.965 167.627 123.975 168.212Z" fill="#FFAE80"/>
<path d="M123.924 173.159C124.14 173.657 124.193 174.203 124.076 174.728C123.96 175.254 123.679 175.736 123.269 176.112C122.86 176.488 122.34 176.742 121.776 176.842C121.212 176.942 120.629 176.883 120.1 176.673C119.572 176.463 119.122 176.111 118.808 175.661C118.494 175.212 118.33 174.685 118.336 174.149C118.342 173.612 118.519 173.089 118.843 172.646C119.168 172.203 119.626 171.86 120.159 171.661C120.511 171.526 120.888 171.457 121.269 171.46C121.65 171.462 122.026 171.535 122.376 171.674C122.727 171.814 123.044 172.017 123.309 172.272C123.575 172.527 123.784 172.828 123.924 173.159Z" fill="#3C3C3B"/>
<path d="M81.7174 113.197H89.7568C90.0086 113.186 90.2548 113.123 90.4775 113.013C90.7003 112.903 90.8941 112.747 91.045 112.559C91.1958 112.37 91.3 112.152 91.35 111.921C91.4 111.69 91.3946 111.452 91.3341 111.223C89.884 103.279 82.6333 100.329 75.001 100.876C71.1189 101.18 67.4887 102.797 64.7908 105.424C62.093 108.051 60.513 111.509 60.3469 115.147C60.27 117.55 60.8205 119.934 61.9509 122.094C63.0813 124.253 64.7575 126.122 66.8344 127.539C67.5303 128.032 68.3787 128.299 69.2513 128.3H71.4392C72.3112 128.3 73.1747 128.14 73.9803 127.828C74.7859 127.516 75.5179 127.059 76.1345 126.482C76.7511 125.906 77.2402 125.221 77.5739 124.468C77.9076 123.715 78.0794 122.908 78.0794 122.093V116.598C78.0794 115.696 78.4627 114.831 79.1449 114.193C79.8272 113.555 80.7525 113.197 81.7174 113.197Z" fill="#EA4A49"/>
<path d="M69.251 126.992C68.6941 126.984 68.1529 126.819 67.6991 126.517C65.3349 124.889 63.5594 122.625 62.6106 120.027C61.6617 117.429 61.5849 114.623 62.3904 111.983C63.1959 109.343 64.8452 106.997 67.1173 105.258C69.3894 103.52 72.1756 102.472 75.1025 102.256C75.6283 102.256 76.1625 102.256 76.7052 102.256C80.1652 102.256 88.3573 103.16 89.8838 111.532C89.9069 111.581 89.9188 111.633 89.9188 111.687C89.9188 111.74 89.9069 111.793 89.8838 111.841H81.768C80.4186 111.841 79.1243 112.342 78.1701 113.235C77.2159 114.127 76.6798 115.337 76.6798 116.598V122.164C76.6798 123.426 76.1437 124.636 75.1895 125.528C74.2353 126.42 72.9411 126.921 71.5916 126.921L69.251 126.992Z" fill="#C21E1D"/>
<path d="M81.7438 111.794C80.3944 111.794 79.1001 112.295 78.1459 113.187C77.1917 114.079 76.6556 115.289 76.6556 116.551V122.116C76.6556 123.378 76.1195 124.588 75.1653 125.48C74.2111 126.372 72.9169 126.873 71.5674 126.873H66.1484L66.9625 127.492C67.6558 127.989 68.5059 128.257 69.3795 128.253H71.5674C73.3285 128.253 75.0174 127.599 76.2626 126.435C77.5079 125.271 78.2075 123.692 78.2075 122.045V116.598C78.2075 115.696 78.5908 114.831 79.2731 114.193C79.9553 113.555 80.8807 113.197 81.8456 113.197H89.885C90.294 113.193 90.6867 113.047 90.9874 112.788C91.2881 112.529 91.4755 112.174 91.5132 111.794H81.7438Z" fill="#16191E"/>
<path d="M89.502 113.197V117.217L89.2476 117.716C89.1511 117.923 89.0113 118.109 88.8365 118.264C88.6618 118.42 88.4555 118.54 88.23 118.62C88.0038 118.667 87.7693 118.667 87.5431 118.62C84.999 118.62 84.6173 116.242 84.541 114.006C84.541 113.76 84.6455 113.524 84.8316 113.35C85.0177 113.176 85.2701 113.078 85.5332 113.078L89.502 113.197Z" fill="#3C3C3B"/>
<path d="M89.5011 113.197V117.217L89.2467 117.716C89.1502 117.923 89.0104 118.109 88.8356 118.264C88.6608 118.42 88.4546 118.54 88.229 118.62C86.5499 118.097 86.2192 116.099 86.1683 114.125C86.1649 114.004 86.1874 113.884 86.2345 113.771C86.2815 113.659 86.3522 113.557 86.4423 113.47C86.5324 113.384 86.6402 113.315 86.7591 113.268C86.8781 113.221 87.006 113.197 87.1351 113.197H89.5011Z" fill="#575756"/>
<path d="M88.2299 118.263C87.1614 117.835 86.6781 116.575 86.6272 114.22C86.6144 114.149 86.6218 114.077 86.6486 114.01C86.6754 113.943 86.7207 113.884 86.7798 113.839C86.8232 113.791 86.878 113.753 86.9398 113.728C87.0017 113.704 87.0688 113.693 87.136 113.697H89.0695V117.217L88.8405 117.645C88.7081 117.904 88.4953 118.119 88.2299 118.263Z" fill="#16191E"/>
<path d="M85.3275 114.434H77.7715V115.956H85.3275V114.434Z" fill="#16191E"/>
<path d="M174.092 266.23C174.092 267.171 173.794 268.091 173.235 268.873C172.676 269.656 171.881 270.265 170.951 270.625C170.022 270.985 168.999 271.08 168.012 270.896C167.025 270.712 166.118 270.259 165.406 269.594C164.695 268.929 164.21 268.081 164.014 267.158C163.817 266.236 163.918 265.279 164.303 264.41C164.688 263.541 165.341 262.798 166.177 262.275C167.014 261.752 167.998 261.473 169.004 261.473C170.354 261.473 171.648 261.975 172.602 262.867C173.556 263.759 174.092 264.969 174.092 266.23Z" fill="#1D1715"/>
<path d="M171.245 266.23C171.245 266.635 171.117 267.031 170.876 267.367C170.636 267.703 170.294 267.965 169.894 268.12C169.495 268.275 169.055 268.316 168.63 268.237C168.206 268.158 167.816 267.963 167.51 267.677C167.204 267.391 166.996 267.026 166.911 266.63C166.827 266.233 166.87 265.821 167.036 265.448C167.201 265.074 167.482 264.754 167.841 264.53C168.201 264.305 168.624 264.185 169.057 264.185C169.345 264.182 169.631 264.232 169.898 264.334C170.165 264.436 170.408 264.586 170.612 264.777C170.816 264.968 170.977 265.194 171.085 265.444C171.194 265.694 171.248 265.961 171.245 266.23Z" fill="#3C3C3B"/>
<path opacity="0.15" d="M192.717 290.705C192.717 292.036 192.151 293.313 191.144 294.254C190.138 295.195 188.772 295.724 187.348 295.724H9.26084C8.52653 295.771 7.78963 295.677 7.09597 295.447C6.4023 295.217 5.76669 294.855 5.22861 294.386C4.69053 293.916 4.2615 293.348 3.96816 292.717C3.67482 292.086 3.52344 291.405 3.52344 290.717C3.52344 290.029 3.67482 289.348 3.96816 288.717C4.2615 288.086 4.69053 287.518 5.22861 287.048C5.76669 286.579 6.4023 286.218 7.09597 285.988C7.78963 285.757 8.52653 285.663 9.26084 285.71H187.348C188.768 285.71 190.129 286.236 191.135 287.172C192.141 288.108 192.71 289.378 192.717 290.705Z" fill="black"/>
<path d="M229.904 296.045C373.909 294.963 647.176 247.673 734.825 228.29" stroke="#B65E0C" stroke-width="3.96638" stroke-dasharray="21.73 21.73"/>
</svg>
