<svg width="290" height="324" viewBox="0 0 290 324" fill="none" xmlns="http://www.w3.org/2000/svg">
<path style="mix-blend-mode:multiply" d="M145 323.46C225.081 323.46 290 303.21 290 278.229C290 253.249 225.081 232.998 145 232.998C64.9187 232.998 0 253.249 0 278.229C0 303.21 64.9187 323.46 145 323.46Z" fill="url(#paint0_radial_611_2444)"/>
<path d="M273.842 38.9395C273.94 32.7828 273.238 26.0652 270.522 20.6721C265.705 11.1486 252.508 11.8929 244.58 14.6935C239.71 16.413 237.026 20.0196 234.681 25.1781C230.277 34.8779 226.18 48.9233 227.725 59.8576C228.546 65.6475 229.425 69.7779 232.98 73.8518C235.475 76.7106 240.174 76.5925 243.47 76.4972C248.81 76.3456 254.16 76.0369 259.487 75.5396C269.85 74.5731 272.326 58.8189 273.214 49.2037C273.496 46.1544 273.785 42.6061 273.842 38.9395Z" fill="url(#paint1_linear_611_2444)"/>
<path d="M258.23 82.4322C254.002 75.995 249.534 68.8136 248.001 60.9391C247.501 58.3766 248.992 51.1317 246.628 51.0629C243.166 50.9589 238.004 50.9095 234.825 51.3381C230.767 51.8848 227.818 52.0558 224.786 55.4173C221.05 59.56 219.727 65.7202 219.654 71.429C219.594 76.4923 219.112 82.6314 222.68 86.2821C225.853 89.5254 233.905 88.7512 237.78 88.5395C244.42 88.1868 252.415 88.2027 259.281 87.3861C262.307 87.0246 259.479 84.3351 258.23 82.4322Z" fill="url(#paint2_linear_611_2444)"/>
<path d="M254.857 0.00122988C251.679 -0.0710779 207.217 3.06638 198.122 3.76124C179.93 5.15096 125.975 9.22841 117.177 9.77336C109.216 10.2689 100.75 9.26544 93.1743 12.5951C88.3935 14.6973 83.4814 20.2368 80.0317 24.3019C72.8573 32.7514 68.3547 44.6169 66.4844 56.0927C63.7288 72.988 65.3888 90.3313 65.5548 107.504C65.9848 152.262 55.9662 197.095 36.7512 236.391C33.4311 243.169 30.2012 252.616 35.4611 257.632C38.0681 260.117 41.8087 260.277 45.2378 260.316L149.683 261.473C161.81 261.607 184.578 264.161 188.617 259.932C197.322 250.819 202.15 237.497 206.909 225.728C216.578 201.816 219.2 175.139 220.105 148.927C221.011 122.715 222.203 8.51415 254.857 0.00122988Z" fill="url(#paint3_radial_611_2444)"/>
<path d="M254.857 0.00122988C251.679 -0.0710779 207.217 3.06638 198.122 3.76124C179.93 5.15096 125.975 9.22841 117.177 9.77336C109.216 10.2689 100.75 9.26544 93.1743 12.5951C88.3935 14.6973 83.4814 20.2368 80.0317 24.3019C72.8573 32.7514 68.3547 44.6169 66.4844 56.0927C63.7288 72.988 65.3888 90.3313 65.5548 107.504C65.9848 152.262 55.9662 197.095 36.7512 236.391C33.4311 243.169 30.2012 252.616 35.4611 257.632C38.0681 260.117 41.8087 260.277 45.2378 260.316L149.683 261.473C161.81 261.607 184.578 264.161 188.617 259.932C197.322 250.819 202.15 237.497 206.909 225.728C216.578 201.816 219.2 175.139 220.105 148.927C221.011 122.715 222.203 8.51415 254.857 0.00122988Z" fill="url(#paint4_linear_611_2444)"/>
<path d="M253.261 0.28173C256.202 -0.125663 259.296 -0.0709903 261.903 0.574489C270.431 2.69081 277.123 10.0221 280.38 18.8878C285.066 31.6369 284.138 47.2818 280.912 60.3448C278.647 69.5156 274.731 79.8432 267.009 84.8325C261.604 88.3244 254.741 88.3844 249.472 84.2646C243.967 79.9596 240.999 72.8011 240.315 65.4998C239.885 60.9039 240.147 51.9694 245.464 51.1494C253.021 49.9854 251.524 60.3201 252.309 65.3605C253.078 70.2721 256.815 75.6035 261.506 72.3109C266.197 69.0182 268.118 62.0079 269.525 56.3696C271.569 48.1707 272.212 38.2539 270.927 29.8627C269.719 21.9511 264.586 13.9232 256.736 13.9902C246.809 14.1331 239.954 24.2844 236.403 33.5468C229.403 51.8143 230.013 73.2579 229.265 92.6823C227.961 126.565 227.128 161.514 219.212 194.43C215.367 210.419 209.884 226.078 202.179 240.243C199.524 245.136 196.589 249.832 193.392 254.302C191.004 257.63 187.8 262.415 183.46 260.158C179.689 258.2 178.777 252.29 181.47 248.855C185.5 243.694 189.114 238.146 192.271 232.277C199.317 219.265 204.319 204.765 207.81 190.127C212.317 171.244 214.385 151.548 215.576 132.148C216.891 110.742 217.34 89.2926 218.821 67.9018C219.485 58.3202 219.906 48.9237 221.983 39.6295C225.4 24.3814 233.417 7.45255 247.578 1.7367C249.419 1.02136 251.325 0.53345 253.261 0.28173Z" fill="url(#paint5_linear_611_2444)"/>
<path d="M143.752 51.345C139.464 51.0899 135.169 51.6797 131.064 53.0874C108.851 60.5774 94.8467 87.1885 103.446 112.05C118.765 156.338 180.189 132.753 176.834 88.8709C175.234 67.9352 161.105 52.4402 143.752 51.345Z" fill="url(#paint6_radial_611_2444)"/>
<path d="M163.162 120.535C178.325 103.62 179.683 77.7111 166.195 62.6651C152.707 47.6191 129.481 49.1338 114.318 66.0483C99.1552 82.9629 97.7974 108.872 111.285 123.918C124.773 138.964 147.999 137.449 163.162 120.535Z" fill="url(#paint7_radial_611_2444)"/>
<path opacity="0.18" d="M112.945 82.9699C112.341 84.2555 111.559 85.3596 110.461 85.125C109.636 84.9486 109.163 83.954 109.021 83.0298C108.676 80.7989 109.559 78.5626 110.627 76.6403C112.841 72.6528 115.957 68.9439 119.612 66.5878C120.192 66.2139 120.825 65.8823 121.493 65.8823C122.162 65.8823 122.875 66.2492 123.131 66.9405C123.893 69.0021 119.879 72.1484 118.755 73.3847C116.966 75.3497 115.423 77.5763 114.17 80.0035C113.84 80.6419 113.457 81.8729 112.945 82.9699Z" fill="white"/>
<path d="M177.707 158.736H177.568L89.5457 158.3C85.4858 158.33 81.7357 162.025 81.127 166.549C80.5247 170.993 83.2218 174.561 87.2264 174.622H87.2865C87.3371 174.622 176.545 174.51 176.549 174.51C180.66 174.446 184.244 170.884 184.495 166.543C184.744 162.253 181.694 158.796 177.707 158.736Z" fill="url(#paint8_linear_611_2444)"/>
<path d="M98.5629 211.711C94.4097 211.558 91.7647 208.103 92.5757 203.699C93.4089 199.235 97.4325 195.613 101.616 195.615C117.7 195.671 133.783 195.73 149.862 195.791C154.047 195.779 156.976 199.318 156.379 203.671C155.781 208.023 151.818 211.565 147.576 211.597C147.578 211.607 98.6229 211.713 98.5629 211.711Z" fill="url(#paint9_linear_611_2444)"/>
<path d="M154.141 77.8783C152.96 77.81 151.802 78.2673 150.923 79.1498C144.599 85.4647 138.091 91.8225 131.399 98.2232C128.603 94.3762 125.81 90.5151 123.02 86.6399C122.627 86.0793 122.136 85.6141 121.576 85.2729C121.017 84.9317 120.4 84.7216 119.765 84.6555C119.13 84.5895 118.49 84.6688 117.883 84.8888C117.277 85.1087 116.717 85.4645 116.238 85.9344C114.182 87.9185 113.866 91.4598 115.552 93.8265C119.317 99.135 123.088 104.416 126.863 109.671C127.263 110.229 127.761 110.69 128.326 111.025C128.891 111.361 129.512 111.563 130.15 111.621L130.318 111.634C131.573 111.694 132.803 111.224 133.761 110.316C141.877 102.697 149.729 95.1404 157.318 87.6451C159.303 85.6893 159.444 82.2097 157.664 79.8623C157.23 79.2794 156.694 78.8023 156.088 78.461C155.482 78.1196 154.819 77.9212 154.141 77.8783Z" fill="url(#paint10_linear_611_2444)"/>
<defs>
<radialGradient id="paint0_radial_611_2444" cx="0" cy="0" r="1" gradientUnits="userSpaceOnUse" gradientTransform="translate(144.897 277.582) rotate(-90) scale(45.1365 144.832)">
<stop stop-color="#729EB1"/>
<stop offset="0.15" stop-color="#7DA4B4"/>
<stop offset="0.7" stop-color="#9EB8BF"/>
<stop offset="1" stop-color="#ABC0C3"/>
</radialGradient>
<linearGradient id="paint1_linear_611_2444" x1="232.428" y1="31.9909" x2="281.542" y2="61.6195" gradientUnits="userSpaceOnUse">
<stop offset="0.06" stop-color="#729EB1"/>
<stop offset="0.45" stop-color="#91B0BB"/>
<stop offset="0.84" stop-color="#ABC0C3"/>
</linearGradient>
<linearGradient id="paint2_linear_611_2444" x1="255.023" y1="73.0533" x2="207.508" y2="65.9981" gradientUnits="userSpaceOnUse">
<stop stop-color="#BED8D9"/>
<stop offset="0.18" stop-color="#AECCD1"/>
<stop offset="0.72" stop-color="#83ABBA"/>
<stop offset="1" stop-color="#729EB1"/>
</linearGradient>
<radialGradient id="paint3_radial_611_2444" cx="0" cy="0" r="1" gradientUnits="userSpaceOnUse" gradientTransform="translate(-351.256 37.4778) scale(641.155 715.223)">
<stop offset="0.63" stop-color="#C1DADB"/>
<stop offset="0.65" stop-color="#D7E7E9"/>
<stop offset="0.67" stop-color="#E7F1F3"/>
<stop offset="0.7" stop-color="#F0F6F9"/>
<stop offset="0.74" stop-color="#F3F8FB"/>
<stop offset="0.82" stop-color="#F3F8FB"/>
<stop offset="0.85" stop-color="#EAF3F5"/>
<stop offset="0.89" stop-color="#D2E4E6"/>
<stop offset="0.92" stop-color="#BED8D9"/>
<stop offset="0.95" stop-color="#B9D2D3"/>
<stop offset="0.99" stop-color="#ABC1C4"/>
<stop offset="1" stop-color="#A6BBBE"/>
</radialGradient>
<linearGradient id="paint4_linear_611_2444" x1="144.02" y1="-20.3613" x2="143.408" y2="270.053" gradientUnits="userSpaceOnUse">
<stop stop-color="#BED8D9"/>
<stop offset="0.21" stop-color="#F3F8FB"/>
<stop offset="0.72" stop-color="#BED8D9"/>
<stop offset="0.9" stop-color="#BED8D9"/>
<stop offset="0.99" stop-color="#A6BBBE"/>
</linearGradient>
<linearGradient id="paint5_linear_611_2444" x1="272.704" y1="-41.4452" x2="159.764" y2="349.064" gradientUnits="userSpaceOnUse">
<stop stop-color="#E3ECF1"/>
<stop offset="0.05" stop-color="#D5E4E8"/>
<stop offset="0.12" stop-color="#C8DDDF"/>
<stop offset="0.21" stop-color="#C0D9DA"/>
<stop offset="0.39" stop-color="#BED8D9"/>
<stop offset="0.72" stop-color="#BED8D9"/>
<stop offset="0.78" stop-color="#BED8D9"/>
</linearGradient>
<radialGradient id="paint6_radial_611_2444" cx="0" cy="0" r="1" gradientUnits="userSpaceOnUse" gradientTransform="translate(132.992 89.6487) scale(46.052 51.372)">
<stop offset="0.01" stop-color="#75D982"/>
<stop offset="0.13" stop-color="#71D17A"/>
<stop offset="0.47" stop-color="#67BF67"/>
<stop offset="0.74" stop-color="#51AA59"/>
<stop offset="0.84" stop-color="#48A153"/>
<stop offset="0.93" stop-color="#4AA354"/>
<stop offset="0.96" stop-color="#51A959"/>
<stop offset="0.99" stop-color="#5CB560"/>
<stop offset="1" stop-color="#67BF67"/>
</radialGradient>
<radialGradient id="paint7_radial_611_2444" cx="0" cy="0" r="1" gradientUnits="userSpaceOnUse" gradientTransform="translate(137.908 93.0316) rotate(18.0816) scale(35.9437 41.827)">
<stop offset="0.2" stop-color="#67BFB6"/>
<stop offset="1" stop-color="#67BF67"/>
</radialGradient>
<linearGradient id="paint8_linear_611_2444" x1="132.035" y1="143.224" x2="131.943" y2="186.947" gradientUnits="userSpaceOnUse">
<stop offset="0.23" stop-color="#A6BBBE"/>
<stop offset="0.25" stop-color="#A9BEC1"/>
<stop offset="0.38" stop-color="#B8D1D3"/>
<stop offset="0.47" stop-color="#BED8D9"/>
<stop offset="0.55" stop-color="#BAD3D5"/>
<stop offset="0.63" stop-color="#AFC6C8"/>
<stop offset="0.68" stop-color="#A6BBBE"/>
<stop offset="0.74" stop-color="#9CAFB2"/>
<stop offset="0.85" stop-color="#809093"/>
<stop offset="0.9" stop-color="#717F82"/>
</linearGradient>
<linearGradient id="paint9_linear_611_2444" x1="124.954" y1="182.177" x2="123.813" y2="221.35" gradientUnits="userSpaceOnUse">
<stop offset="0.23" stop-color="#A6BBBE"/>
<stop offset="0.25" stop-color="#A9BEC1"/>
<stop offset="0.38" stop-color="#B8D1D3"/>
<stop offset="0.47" stop-color="#BED8D9"/>
<stop offset="0.55" stop-color="#BAD3D5"/>
<stop offset="0.63" stop-color="#AFC6C8"/>
<stop offset="0.68" stop-color="#A6BBBE"/>
<stop offset="0.74" stop-color="#9CAFB2"/>
<stop offset="0.85" stop-color="#809093"/>
<stop offset="0.9" stop-color="#717F82"/>
</linearGradient>
<linearGradient id="paint10_linear_611_2444" x1="128.315" y1="77.6578" x2="147.811" y2="96.882" gradientUnits="userSpaceOnUse">
<stop stop-color="#FFFDA6"/>
<stop offset="0.47" stop-color="#F5E37B"/>
<stop offset="0.67" stop-color="#F5E278"/>
<stop offset="0.79" stop-color="#F5DF70"/>
<stop offset="0.89" stop-color="#F5DB61"/>
<stop offset="0.98" stop-color="#F6D44D"/>
<stop offset="1" stop-color="#F6D246"/>
</linearGradient>
</defs>
</svg>
