<svg width="36" height="40" viewBox="0 0 36 40" fill="none" xmlns="http://www.w3.org/2000/svg">
<circle cx="17.7058" cy="18.2092" r="17.4207" fill="#B65E0C"/>
<path d="M22.3437 20.626C22.3437 21.2305 22.1466 21.7299 21.7523 22.1241C21.3844 22.4921 20.8981 22.6761 20.2936 22.6761C19.6891 22.6761 19.1897 22.4658 18.7954 22.0453C18.4011 21.6248 18.204 21.0071 18.204 20.1923C18.204 19.1672 18.5194 17.9713 19.1502 16.6046C19.8073 15.2378 20.6878 13.871 21.7918 12.5043L22.6197 13.2534C21.8049 14.331 21.2135 15.3035 20.8455 16.1709C20.4776 17.012 20.2673 17.8136 20.2147 18.5758H20.2936C20.8981 18.5758 21.3844 18.773 21.7523 19.1672C22.1466 19.5352 22.3437 20.0214 22.3437 20.626ZM15.7202 20.626C15.7202 21.2305 15.5362 21.7299 15.1682 22.1241C14.8003 22.4921 14.314 22.6761 13.7095 22.6761C13.105 22.6761 12.6056 22.4658 12.2113 22.0453C11.8171 21.6248 11.6199 21.0071 11.6199 20.1923C11.6199 19.1672 11.9353 17.9713 12.5661 16.6046C13.197 15.2378 14.0643 13.871 15.1682 12.5043L16.0356 13.2534C15.2208 14.331 14.6163 15.3035 14.222 16.1709C13.854 17.012 13.6438 17.8136 13.5912 18.5758H13.7095C14.314 18.5758 14.8003 18.773 15.1682 19.1672C15.5362 19.5352 15.7202 20.0214 15.7202 20.626Z" fill="white"/>
</svg>
