<svg width="59" height="58" viewBox="0 0 59 58" fill="none" xmlns="http://www.w3.org/2000/svg">
<path d="M57.2677 44.821L44.0032 31.5571C41.3866 28.9405 37.4786 28.4308 34.3296 29.9826L22.2545 17.908V10.8739L7.75526 0L0.505664 7.24929L11.3801 21.7479H18.4144L30.4895 33.8225C28.949 36.9714 29.4474 40.8792 32.0641 43.4958L45.3286 56.7597C46.9824 58.4134 49.6557 58.4134 51.2981 56.7597L57.2677 50.7904C58.9102 49.1366 58.9102 46.4634 57.2677 44.821ZM38.079 25.4858C41.2846 25.4858 44.2978 26.7318 46.5633 28.9972L48.7608 31.1946C50.5505 30.413 52.2497 29.3257 53.7222 27.8531C57.9247 23.6508 59.352 17.7381 58.0154 12.3691C57.7661 11.3497 56.4861 10.9985 55.7385 11.7461L47.3109 20.1734L39.6195 18.8935L38.3395 11.2024L46.7672 2.77512C47.5148 2.02754 47.1523 0.747583 46.1215 0.487062C40.7523 -0.838199 34.8393 0.589005 30.6481 4.78C27.4198 8.0082 25.9019 12.2672 25.9812 16.5148L35.2811 25.8143C36.1986 25.5991 37.1501 25.4858 38.079 25.4858ZM26.3097 34.7739L19.887 28.3515L2.62391 45.6252C-0.207968 48.457 -0.207968 53.0444 2.62391 55.8762C5.45578 58.7079 10.0434 58.7079 12.8753 55.8762L26.8761 41.876C26.0152 39.6219 25.7547 37.164 26.3097 34.7739ZM7.75526 53.4635C6.26003 53.4635 5.03666 52.2402 5.03666 50.745C5.03666 49.2386 6.2487 48.0266 7.75526 48.0266C9.26182 48.0266 10.4739 49.2386 10.4739 50.745C10.4739 52.2402 9.26182 53.4635 7.75526 53.4635Z" fill="#B65E0C"/>
</svg>
