<svg width="59" height="54" viewBox="0 0 59 54" fill="none" xmlns="http://www.w3.org/2000/svg">
<path d="M36.7494 22.5H49.7752L41.7277 13.5H36.7494V22.5ZM42.791 41.625C43.7335 41.625 44.5794 41.3325 45.3044 40.6575C46.0294 39.9825 46.416 39.195 46.416 38.25C46.416 37.3725 46.0294 36.585 45.3044 35.91C44.5794 35.235 43.7335 34.875 42.791 34.875C41.776 34.875 40.9302 35.235 40.2052 35.91C39.4802 36.585 39.166 37.3725 39.166 38.25C39.166 39.195 39.4802 39.9825 40.2052 40.6575C40.9302 41.3325 41.776 41.625 42.791 41.625ZM14.9993 41.625C16.0627 41.625 16.9327 41.3325 17.6093 40.6575C18.286 39.9825 18.6243 39.195 18.6243 38.25C18.6243 37.3725 18.286 36.585 17.6093 35.91C16.9327 35.235 16.0627 34.875 14.9993 34.875C13.936 34.875 13.066 35.235 12.3893 35.91C11.7127 36.585 11.3743 37.3725 11.3743 38.25C11.3743 39.195 11.7127 39.9825 12.3893 40.6575C13.066 41.3325 13.936 41.625 14.9993 41.625ZM43.9994 9L56.0827 22.5V38.25H50.041C50.041 40.1175 49.2919 41.6925 47.8419 43.0425C46.416 44.37 44.7243 45 42.791 45C40.7852 45 39.0935 44.37 37.6677 43.0425C36.2177 41.6925 35.541 40.1175 35.541 38.25H22.2493C22.2493 40.1175 21.5243 41.6925 20.0985 43.0425C18.6243 44.37 16.9568 45 14.9993 45C13.0418 45 11.3743 44.37 9.90018 43.0425C8.47435 41.6925 7.74935 40.1175 7.74935 38.25H2.91602V29.25H22.7085L7.74935 18.2475V24.75H2.91602V11.25H5.33268L31.916 24.885V9H43.9994Z" fill="#B65E0C"/>
</svg>
